<?xml version="1.0" encoding="UTF-8"?>
<svg version="1.1" xmlns="http://www.w3.org/2000/svg" width="1024" height="1024">
<path d="M0 0 C1.175625 0.28875 2.35125 0.5775 3.5625 0.875 C14.45842748 3.55332854 24.12774842 7.83231187 34.03320312 12.984375 C37.33814703 14.69099946 40.67019847 16.3424988 44 18 C44 18.66 44 19.32 44 20 C45.07314453 20.38285156 45.07314453 20.38285156 46.16796875 20.7734375 C54.74882259 24.48983489 61.66550933 31.28459341 68 38 C68.73347656 38.67546875 69.46695313 39.3509375 70.22265625 40.046875 C72 42 72 42 72 45 C72.59039063 45.22945313 73.18078125 45.45890625 73.7890625 45.6953125 C83.24484177 51.27522465 90.31807742 70.6274731 93.1328125 80.83984375 C93.47436351 82.20306334 93.80472191 83.56912626 94.125 84.9375 C94.29676758 85.6711377 94.46853516 86.40477539 94.64550781 87.16064453 C96.32211721 94.76398677 96.81602209 102.22275218 97 110 C97.02835938 110.95132813 97.05671875 111.90265625 97.0859375 112.8828125 C97.1264062 115.59421512 97.07755036 118.28943032 97 121 C96.98324219 122.15242187 96.96648438 123.30484375 96.94921875 124.4921875 C96.2267074 145.01150998 89.7490294 164.57264016 81 183 C80.30881547 184.50601505 79.61881311 186.01257296 78.9296875 187.51953125 C75.2468108 195.51217413 71.53441974 203.21145873 66.609375 210.53125 C64.92301011 213.118101 63.49209633 215.76378337 62.0625 218.5 C59.34480801 223.60485387 56.11261218 228.17049392 52.63671875 232.78515625 C50.98378247 234.88918229 50.98378247 234.88918229 50 237 C49.34 237 48.68 237 48 237 C47.92652344 237.53109375 47.85304688 238.0621875 47.77734375 238.609375 C46.68956324 241.95471004 44.67283612 244.48905947 42.5625 247.25 C42.15451172 247.80429687 41.74652344 248.35859375 41.32617188 248.9296875 C40.27046691 250.32810909 39.14012413 251.66950652 38 253 C37.34 253 36.68 253 36 253 C35.938125 253.556875 35.87625 254.11375 35.8125 254.6875 C34.90323263 257.27541481 33.62078966 258.54356876 31.64453125 260.39453125 C29.54807796 262.44118755 27.63118565 264.62039857 25.6875 266.8125 C24.12601529 268.54258356 22.56352287 270.27175816 21 272 C20.29101562 272.80050781 19.58203125 273.60101562 18.8515625 274.42578125 C13.82815864 279.84374365 13.82815864 279.84374365 9.6875 280.625 C7 280 7 280 4 278 C3.02005511 275.17738362 2.77870199 273.62315759 3.78515625 270.7890625 C6.70010374 265.85058877 9.72705904 260.8970224 14 257 C14.66 257 15.32 257 16 257 C16.66 255.68 17.32 254.36 18 253 C18.66 253 19.32 253 20 253 C20.061875 252.443125 20.12375 251.88625 20.1875 251.3125 C21.102057 248.70953008 22.40464985 247.54533815 24.3984375 245.703125 C27.39243793 242.51926112 29.75073543 238.81968123 32.23046875 235.23046875 C32.81441406 234.49441406 33.39835938 233.75835938 34 233 C34.66 233 35.32 233 36 233 C36.0928125 232.44570313 36.185625 231.89140625 36.28125 231.3203125 C37.19184626 228.38067023 38.6909941 226.35867613 40.5 223.875 C42.94482343 220.55530546 42.94482343 220.55530546 45 217 C45.66 217 46.32 217 47 217 C47.24878906 216.319375 47.49757813 215.63875 47.75390625 214.9375 C49.22626359 211.46661374 51.04403999 208.25188729 52.9375 205 C53.28490234 204.39671875 53.63230469 203.7934375 53.99023438 203.171875 C55.48661889 200.57926905 57.00021873 197.99964003 58.5546875 195.44140625 C76.9848931 164.3093022 86.22231489 127.92349331 79 92 C76.21101495 81.33431108 72.00460422 69.63852751 65.2890625 60.73046875 C64 59 64 59 64 57 C63.34 57 62.68 57 62 57 C60.77842417 55.56584602 59.62332463 54.07484484 58.5 52.5625 C50.16625915 41.86070164 39.92359392 34.22300972 28 28 C26.9996875 27.46761719 25.999375 26.93523437 24.96875 26.38671875 C19.68746184 23.64398792 14.5899599 21.3177025 8.83984375 19.7734375 C6.6911621 19.18823947 4.56072245 18.53551306 2.44140625 17.8515625 C-17.15962462 11.557365 -37.53967255 9.38669255 -58 8 C-59.21792236 7.91322998 -59.21792236 7.91322998 -60.46044922 7.82470703 C-82.40036829 6.28722466 -104.04976644 7.440148 -125.95791626 8.86978149 C-127.99072801 8.99940875 -130.02390354 9.12019433 -132.05737305 9.23901367 C-138.92942999 9.65720814 -145.65817025 10.23882268 -152.4375 11.4375 C-158.30594682 12.42576378 -164.14769837 13.27899326 -170.0625 13.9375 C-183.5239451 15.58855756 -196.53800394 19.07672846 -209.625 22.5625 C-210.72763184 22.85535889 -211.83026367 23.14821777 -212.96630859 23.44995117 C-218.78618809 25.02689058 -224.37984345 26.82179243 -230 29 C-231.89968011 29.45077155 -233.79937022 29.9015013 -235.69921875 30.3515625 C-239.69738637 31.47838054 -243.51906643 33.05985054 -247.37890625 34.5859375 C-249.88017149 35.56269912 -252.37653021 36.5070403 -254.90234375 37.4140625 C-263.30546168 40.44352152 -271.24569255 43.92005376 -279.17871094 48.06152344 C-281.11065566 49.05701882 -283.05631997 50.01998518 -285.0078125 50.9765625 C-304.39892229 60.48905206 -322.55853032 72.07802846 -340.0390625 84.75 C-342 86 -342 86 -344 86 C-344.33 86.99 -344.66 87.98 -345 89 C-345.99 89 -346.98 89 -348 89 C-348.33 89.99 -348.66 90.98 -349 92 C-351.2578125 93.83203125 -351.2578125 93.83203125 -354.125 95.8125 C-361.05429558 100.722247 -366.57231139 105.45893937 -372 112 C-377.27559055 117 -377.27559055 117 -380 117 C-380.66 118.32 -381.32 119.64 -382 121 C-382.66 121 -383.32 121 -384 121 C-384.24878906 121.56976563 -384.49757813 122.13953125 -384.75390625 122.7265625 C-386.1896178 125.34594845 -387.88707456 127.20221644 -389.9375 129.375 C-394.39104683 134.20449558 -398.42168818 139.27888016 -402.36889648 144.52880859 C-403.53511008 146.05400359 -404.76256414 147.53199917 -406 149 C-406.66 149 -407.32 149 -408 149 C-408.33 150.32 -408.66 151.64 -409 153 C-409.66 153 -410.32 153 -411 153 C-411.24621094 153.55042969 -411.49242187 154.10085938 -411.74609375 154.66796875 C-413.25374367 157.47191579 -415.09747558 159.80683394 -417.0625 162.3125 C-436.79476813 188.16622395 -451.10046371 222.30381146 -452 255 C-452.05994141 256.52367187 -452.05994141 256.52367187 -452.12109375 258.078125 C-452.48872155 274.5997507 -448.14210949 288.40191864 -439.55078125 302.44140625 C-438 305 -438 305 -436.92578125 307.26171875 C-435.71418252 309.53666152 -434.34564109 310.06174356 -432 311 C-432 311.66 -432 312.32 -432 313 C-430.68 313.66 -429.36 314.32 -428 315 C-428 315.66 -428 316.32 -428 317 C-427.2265625 317.3403125 -427.2265625 317.3403125 -426.4375 317.6875 C-424 319 -424 319 -420.9375 321.25 C-413.60054002 326.57597309 -405.35154426 330.53332125 -397 334 C-396.19949219 334.33773438 -395.39898437 334.67546875 -394.57421875 335.0234375 C-391.96117869 336.01472736 -389.40400001 336.72181046 -386.6875 337.375 C-385.64980469 337.62765625 -384.61210937 337.8803125 -383.54296875 338.140625 C-382.37378906 338.42421875 -381.20460938 338.7078125 -380 339 C-377.16559176 339.70405001 -374.33282542 340.41461206 -371.5 341.125 C-370.156278 341.4610495 -368.81252948 341.79699294 -367.46875 342.1328125 C-365.68367533 342.57908117 -363.89888553 343.02802808 -362.12573242 343.51953125 C-351.60607779 345.89723658 -340.10315351 345.15573487 -329.38110352 345.13037109 C-326.7025786 345.12503007 -324.02422286 345.13033723 -321.34570312 345.13671875 C-305.86632513 345.14412268 -291.13506906 344.58757193 -276 341 C-274.33476572 340.67995497 -272.66818436 340.36679422 -271 340.0625 C-259.39593717 337.75304541 -248.18047006 333.80446551 -237 330 C-235.00027385 329.33251233 -233.00031495 328.66572107 -231 328 C-231.93046143 328.03029297 -232.86092285 328.06058594 -233.81958008 328.09179688 C-271.06150183 329.28876821 -271.06150183 329.28876821 -284 329 C-284.83257324 328.98211426 -285.66514648 328.96422852 -286.52294922 328.94580078 C-307.44018225 328.41989494 -328.04361391 326.55417466 -348 320 C-349.58361328 319.48759766 -349.58361328 319.48759766 -351.19921875 318.96484375 C-357.40668375 316.82642833 -363.23016811 314.12379433 -369 311 C-369.78890625 310.58234375 -370.5778125 310.1646875 -371.390625 309.734375 C-388.38125061 300.19770127 -401.27894018 285.84257734 -409 268 C-409.51046875 266.91203125 -410.0209375 265.8240625 -410.546875 264.703125 C-419.81028023 241.09638263 -414.12705229 212.68148765 -404.77734375 190.0390625 C-403.57058122 187.33063726 -402.30268117 184.66351776 -401 182 C-400.525625 181.00097656 -400.05125 180.00195312 -399.5625 178.97265625 C-396.89344372 173.46077701 -394.04490425 168.29072783 -390.55078125 163.26171875 C-388.86620054 160.80486175 -387.31259857 158.28602063 -385.75 155.75 C-377.5721117 142.91948378 -367.97996598 131.79115209 -356.39453125 121.91796875 C-352.83949835 118.83132407 -349.50662975 115.55417788 -346.20703125 112.19921875 C-345.43093506 111.41133972 -345.43093506 111.41133972 -344.63916016 110.60754395 C-342.49500197 108.42710253 -340.35348391 106.24426572 -338.22241211 104.05102539 C-330.62389012 96.2440038 -322.77753127 89.46301591 -314 83 C-312.62144808 81.92119014 -311.24545602 80.83907594 -309.875 79.75 C-305.2113829 76.28834607 -300.13905795 73.68176128 -295 71 C-293.4501233 70.18043883 -291.90067759 69.36006233 -290.3515625 68.5390625 C-277.95239289 61.97982828 -265.61722353 55.8723272 -252.625 50.5625 C-248.21441214 48.75812587 -243.81925377 46.95315176 -239.5 44.9375 C-219.04751465 35.72003561 -196.90318854 30.68917537 -174.75 27.875 C-173.46609375 27.70613281 -172.1821875 27.53726563 -170.859375 27.36328125 C-167.24099412 26.89244685 -163.62371163 26.42799364 -160 26 C-159.26399063 25.9115834 -158.52798126 25.82316681 -157.76966858 25.73207092 C-151.05917419 24.98522865 -144.40077364 24.80724852 -137.65234375 24.76171875 C-136.48280655 24.753647 -135.31326935 24.74557526 -134.10829163 24.73725891 C-131.63658089 24.72348822 -129.1648517 24.71273503 -126.69311523 24.70483398 C-124.2161687 24.69340168 -121.73924505 24.67309197 -119.26245117 24.64331055 C-100.02137161 24.41276277 -80.25532308 24.73463092 -61.9393158 31.33451843 C-59.72573893 32.13065926 -59.72573893 32.13065926 -56.25 32.875 C-38.26200822 37.24757508 -20.56813732 46.74279025 -6.9375 59.1875 C-6.09626587 59.95453247 -6.09626587 59.95453247 -5.23803711 60.73706055 C-2.48407655 63.33074441 -0.62679531 65.61408631 1 69 C1.99 69.33 2.98 69.66 4 70 C4 70.99 4 71.98 4 73 C4.99 73.33 5.98 73.66 7 74 C9.38705599 77.44351214 11.14843821 81.24756122 13 85 C13.78310547 86.57201172 13.78310547 86.57201172 14.58203125 88.17578125 C28.06908048 117.23268984 25.7627712 154.34258602 15 184 C13.46919797 188.06786552 11.78608631 192.03804611 10 196 C9.7328418 196.59989746 9.46568359 197.19979492 9.19042969 197.81787109 C5.98758379 204.98675532 2.63275334 211.94755073 -1.54296875 218.61328125 C-3.10329562 221.16920543 -4.48677732 223.78453537 -5.875 226.4375 C-8.62304908 231.55455691 -11.8722064 236.15033878 -15.36328125 240.78515625 C-17.01621753 242.88918229 -17.01621753 242.88918229 -18 245 C-18.66 245 -19.32 245 -20 245 C-20.33 246.32 -20.66 247.64 -21 249 C-21.66 249 -22.32 249 -23 249 C-23.2371875 249.70511719 -23.474375 250.41023438 -23.71875 251.13671875 C-25.22502173 254.50286868 -27.15584517 256.96983173 -29.5 259.8125 C-30.69109375 261.27623047 -30.69109375 261.27623047 -31.90625 262.76953125 C-32.5971875 263.50558594 -33.288125 264.24164062 -34 265 C-34.66 265 -35.32 265 -36 265 C-36.2475 265.56460937 -36.495 266.12921875 -36.75 266.7109375 C-42.16604713 276.6290738 -57.03476664 293.34492221 -68 297 C-68.39058594 297.86044922 -68.39058594 297.86044922 -68.7890625 298.73828125 C-70.57021725 302.06501867 -73.41898824 303.95639146 -76.375 306.1875 C-76.99624756 306.66582275 -77.61749512 307.14414551 -78.25756836 307.63696289 C-80.16467145 309.10084716 -82.08043391 310.55250719 -84 312 C-84.5779834 312.43634766 -85.1559668 312.87269531 -85.75146484 313.32226562 C-88.28719965 315.23316804 -90.82906674 317.13529917 -93.37890625 319.02734375 C-95.17883136 320.38198187 -96.93571605 321.79515193 -98.65234375 323.25390625 C-101 325 -101 325 -104 325 C-104.33 325.99 -104.66 326.98 -105 328 C-107.1875 329.61328125 -107.1875 329.61328125 -110 331.3125 C-113.56750986 333.50364154 -117.09998393 335.70873237 -120.5625 338.0625 C-125.27120733 341.22118801 -130.12337681 344.11014922 -135 347 C-135.8146875 347.495 -136.629375 347.99 -137.46875 348.5 C-148.04798272 354.92788824 -158.98399652 360.55159171 -170.06933594 366.04052734 C-172.90726771 367.45088039 -175.73370751 368.88392434 -178.5625 370.3125 C-182.65730465 372.35715413 -186.76429144 374.26033399 -191 376 C-191.82242187 376.35578125 -192.64484375 376.7115625 -193.4921875 377.078125 C-200.12493844 379.9181647 -206.83497588 382.40363131 -213.64770508 384.76660156 C-217.99153466 386.27674024 -222.28539772 387.86970146 -226.5625 389.5625 C-231.42866752 391.45761549 -236.33107765 393.12838475 -241.3125 394.6875 C-242.28135132 394.99119507 -242.28135132 394.99119507 -243.26977539 395.30102539 C-247.80922556 396.69594546 -252.38819797 397.87574998 -257 399 C-258.81380794 399.45570585 -260.62760954 399.91143695 -262.44140625 400.3671875 C-276.54088917 403.86433063 -290.61667991 406.93306022 -305 409 C-306.04446289 409.15098145 -307.08892578 409.30196289 -308.16503906 409.45751953 C-353.26279902 415.68044652 -402.87629519 414.31691374 -446 399 C-447.18106323 398.5814978 -447.18106323 398.5814978 -448.38598633 398.15454102 C-465.38060946 392.00095708 -482.27149331 383.99385783 -496 372 C-496 371.34 -496 370.68 -496 370 C-496.54140625 369.78085937 -497.0828125 369.56171875 -497.640625 369.3359375 C-500.79454151 367.5501106 -503.21057167 365.17209667 -505.75 362.625 C-506.2749707 362.09914307 -506.79994141 361.57328613 -507.34082031 361.03149414 C-520 347.99099054 -520 347.99099054 -520 341 C-520.66 341 -521.32 341 -522 341 C-537.37899412 307.86972012 -537.62956634 272.67107069 -525.73828125 238.359375 C-523.13527688 231.42897849 -520.15018531 224.69616312 -517 218 C-516.26288031 216.4102214 -515.52591466 214.82037137 -514.7890625 213.23046875 C-513.98492708 211.50755472 -513.1802358 209.78490002 -512.375 208.0625 C-511.99053711 207.23282715 -511.60607422 206.4031543 -511.20996094 205.54833984 C-510.8390332 204.76023926 -510.46810547 203.97213867 -510.0859375 203.16015625 C-509.7564209 202.45511963 -509.4269043 201.75008301 -509.08740234 201.02368164 C-507.91144328 198.83519383 -506.50045021 196.97651162 -505 195 C-503.96958573 193.01549844 -502.96314063 191.01800895 -502 189 C-501.34 189 -500.68 189 -500 189 C-499.89558594 188.44183594 -499.79117188 187.88367188 -499.68359375 187.30859375 C-495.87428791 174.44402374 -483.06115823 162.07778481 -474.34350586 152.05102539 C-470.57883796 147.71641754 -467.00410252 143.26276744 -463.5234375 138.6953125 C-463.02070313 138.13585937 -462.51796875 137.57640625 -462 137 C-461.34 137 -460.68 137 -460 137 C-459.34 135.68 -458.68 134.36 -458 133 C-457.34 133 -456.68 133 -456 133 C-455.34 131.68 -454.68 130.36 -454 129 C-453.34 129 -452.68 129 -452 129 C-451.34 127.68 -450.68 126.36 -450 125 C-449.34 125 -448.68 125 -448 125 C-447.34 123.68 -446.68 122.36 -446 121 C-445.34 121 -444.68 121 -444 121 C-443.34 119.68 -442.68 118.36 -442 117 C-441.34 117 -440.68 117 -440 117 C-439.01 115.02 -439.01 115.02 -438 113 C-437.34 113 -436.68 113 -436 113 C-435.76796875 112.42121094 -435.5359375 111.84242188 -435.296875 111.24609375 C-433.68263303 108.45034334 -431.80940235 107.02083058 -429.25 105.0625 C-426.27608356 102.7633016 -423.3376777 100.4654081 -420.5 98 C-418 96 -418 96 -416 96 C-415.505 94.515 -415.505 94.515 -415 93 C-413.57299805 91.66552734 -413.57299805 91.66552734 -411.76171875 90.3359375 C-411.10623047 89.85382813 -410.45074219 89.37171875 -409.77539062 88.875 C-409.08638672 88.38 -408.39738281 87.885 -407.6875 87.375 C-407.01009766 86.87226563 -406.33269531 86.36953125 -405.63476562 85.8515625 C-400.47977891 82.10248125 -400.47977891 82.10248125 -397.83520508 81.53759766 C-397.2295874 81.36019043 -396.62396973 81.1827832 -396 81 C-395.67 80.01 -395.34 79.02 -395 78 C-392.84765625 76.421875 -392.84765625 76.421875 -390.0625 74.75 C-386.18836115 72.37017185 -382.40091655 69.93672294 -378.6875 67.3125 C-377.87152344 66.74144531 -377.05554688 66.17039062 -376.21484375 65.58203125 C-374.87598656 64.62570469 -373.55077142 63.64926001 -372.25390625 62.63671875 C-369.41642378 60.49202421 -368.2524779 59.98129793 -364.625 60.25 C-363.75875 60.4975 -362.8925 60.745 -362 61 C-361.67 62.32 -361.34 63.64 -361 65 C-361.99 65.33 -362.98 65.66 -364 66 C-364 66.66 -364 67.32 -364 68 C-365.36210914 68.9534764 -366.73295111 69.89642641 -368.140625 70.78125 C-370.9708559 72.63635933 -373.60238529 74.74295282 -376.265625 76.828125 C-378 78 -378 78 -380 78 C-380.33 78.99 -380.66 79.98 -381 81 C-381.99 81 -382.98 81 -384 81 C-384.33 81.99 -384.66 82.98 -385 84 C-386.92830332 85.64049685 -388.83271783 87.14231271 -390.875 88.625 C-391.41769531 89.03234375 -391.96039063 89.4396875 -392.51953125 89.859375 C-395.00320196 91.69328344 -397.05114504 93.01704835 -400 94 C-400.33 94.99 -400.66 95.98 -401 97 C-405.45714286 101 -405.45714286 101 -408 101 C-408.495 102.485 -408.495 102.485 -409 104 C-410.63506539 105.45690361 -412.33332325 106.84364186 -414.0625 108.1875 C-418.35946301 111.61285682 -422.27924062 115.15832452 -426.1015625 119.09765625 C-428.01772043 121.01775689 -430.00635289 122.79389837 -432.0625 124.5625 C-441.23415884 132.48022111 -448.94181309 141.49383868 -456.30078125 151.09375 C-456.86152344 151.7228125 -457.42226563 152.351875 -458 153 C-458.66 153 -459.32 153 -460 153 C-460.27763184 153.58845703 -460.55526367 154.17691406 -460.84130859 154.78320312 C-461.93164101 156.86921627 -463.1057271 158.60787352 -464.5390625 160.46875 C-465.03301514 161.11585938 -465.52696777 161.76296875 -466.03588867 162.4296875 C-466.56029541 163.11289062 -467.08470215 163.79609375 -467.625 164.5 C-479.89591845 180.71246403 -489.57925851 198.03635883 -499 216 C-499.4228125 216.80308594 -499.845625 217.60617187 -500.28125 218.43359375 C-502.18420871 222.13138851 -503.75543497 225.84837304 -505.15625 229.75390625 C-506.16452031 232.43795915 -507.30265486 235.05452087 -508.4375 237.6875 C-519.56090986 264.51061747 -522.34312165 296.04517868 -511.4675293 323.47338867 C-504.84273423 339.17297104 -494.29512206 353.46991863 -480 363 C-480 363.66 -480 364.32 -480 365 C-479.42765625 365.10699219 -478.8553125 365.21398437 -478.265625 365.32421875 C-475.66787989 366.09906341 -473.95660895 367.24485515 -471.75 368.8125 C-465.10879853 373.52678352 -457.99043465 376.53138133 -450.3125 379.125 C-448.84993959 379.6266698 -447.38769143 380.12925101 -445.92578125 380.6328125 C-445.24080566 380.86758301 -444.55583008 381.10235352 -443.85009766 381.34423828 C-442.35662252 381.87359619 -440.88327276 382.45953073 -439.41796875 383.0625 C-419.99899675 390.59166524 -397.60236141 392.75772762 -377 394 C-375.91831543 394.06848145 -374.83663086 394.13696289 -373.72216797 394.20751953 C-355.66345135 395.28942619 -338.00419956 394.67261237 -320 393 C-318.65808594 392.8777002 -318.65808594 392.8777002 -317.2890625 392.75292969 C-302.92469241 391.40483585 -288.23765974 389.80681368 -274.3828125 385.67578125 C-272.03249866 385.00921683 -269.71714705 384.54958289 -267.3125 384.125 C-260.68980798 382.86353485 -254.33287683 380.67885941 -247.92822266 378.61279297 C-245.25581972 377.76349804 -242.56453933 376.98061448 -239.875 376.1875 C-231.04254084 373.48255938 -222.401605 370.2080265 -213.74023438 367.00561523 C-211.84887652 366.31152195 -209.95409958 365.62669961 -208.05664062 364.94946289 C-207.09693359 364.6064917 -206.13722656 364.26352051 -205.1484375 363.91015625 C-203.85558838 363.45201538 -203.85558838 363.45201538 -202.53662109 362.98461914 C-199.06142442 361.63568091 -195.78104814 359.97968911 -192.484375 358.24609375 C-190.57724341 357.28952932 -188.62951427 356.41356707 -186.66796875 355.57421875 C-182.89841977 353.9564038 -179.22921585 352.21042795 -175.5625 350.375 C-174.87583252 350.03162598 -174.18916504 349.68825195 -173.48168945 349.33447266 C-167.10909963 346.11373719 -160.89479441 342.6374744 -154.6953125 339.09765625 C-151.51280048 337.28082928 -148.29597048 335.53731782 -145.0625 333.8125 C-140.99468327 331.60581552 -137.15531121 329.18990115 -133.33203125 326.5859375 C-130.63765464 324.75358088 -127.920743 322.96139281 -125.1875 321.1875 C-124.29417969 320.60355469 -123.40085937 320.01960938 -122.48046875 319.41796875 C-120.25196974 318.1440394 -118.5062372 317.44983745 -116 317 C-116 316.34 -116 315.68 -116 315 C-113.9453125 313.5546875 -113.9453125 313.5546875 -111.125 311.875 C-104.38369683 307.713809 -98.39078064 302.84885236 -92.3359375 297.76171875 C-90 296 -90 296 -88 296 C-87.67 295.01 -87.34 294.02 -87 293 C-85.06640625 291.2734375 -85.06640625 291.2734375 -82.5625 289.375 C-72.5779518 281.57767858 -62.74738805 273.04634327 -55.33984375 262.67578125 C-54.89769531 262.12277344 -54.45554687 261.56976562 -54 261 C-53.34 261 -52.68 261 -52 261 C-51.7421875 260.42765625 -51.484375 259.8553125 -51.21875 259.265625 C-49.88634058 256.78871005 -48.34943882 254.8658834 -46.5 252.75 C-45.8915625 252.04359375 -45.283125 251.3371875 -44.65625 250.609375 C-43 249 -43 249 -41 249 C-40.7628125 248.46890625 -40.525625 247.9378125 -40.28125 247.390625 C-38.62621616 244.30257405 -36.59451872 241.5471528 -34.5 238.75 C-34.09652344 238.19570313 -33.69304687 237.64140625 -33.27734375 237.0703125 C-32.23549829 235.67430835 -31.12254588 234.33197608 -30 233 C-29.34 233 -28.68 233 -28 233 C-27.91105469 232.46632813 -27.82210938 231.93265625 -27.73046875 231.3828125 C-26.74968213 228.18345507 -25.10037543 225.70154591 -23.3125 222.875 C-22.57925347 221.70062922 -21.84618185 220.52614921 -21.11328125 219.3515625 C-19.88638861 217.40576973 -18.65630438 215.46196785 -17.41796875 213.5234375 C-9.32140613 200.54217182 -3.78813454 186.47114548 1 172 C1.49983398 170.58025879 1.49983398 170.58025879 2.00976562 169.13183594 C3.63179392 164.00181155 4.30839668 158.74542161 5.125 153.4375 C5.39763672 151.78137695 5.39763672 151.78137695 5.67578125 150.09179688 C9.4089055 126.05103805 5.71623677 101.4290526 -8.78125 81.55859375 C-15.03558095 73.4304454 -21.74350031 66.75419019 -30.95703125 62.10546875 C-33 61 -33 61 -34.87109375 59.51171875 C-42.66975776 53.97395183 -54.25700482 51.91783548 -63.40625 49.11328125 C-65.54824302 48.44972906 -67.68105066 47.75295221 -69.7890625 46.98828125 C-87.52387326 41.52975677 -106.38257618 41.59223603 -124.75 41.5625 C-125.78670837 41.55659851 -126.82341675 41.55069702 -127.89154053 41.5446167 C-140.0563388 41.49773747 -151.15564027 42.23876714 -163 45 C-165.91009248 45.4431456 -168.81876359 45.73860901 -171.75 46 C-178.21352389 46.65789566 -184.63938648 47.45869154 -191.0625 48.4375 C-192.20380371 48.60282227 -192.20380371 48.60282227 -193.36816406 48.77148438 C-198.80009989 49.62327282 -203.83601687 51.12322703 -209 53 C-208.37246826 52.98952637 -207.74493652 52.97905273 -207.09838867 52.96826172 C-193.23084676 52.76869239 -179.7446294 53.1510603 -166 55 C-165.16404297 55.10715332 -164.32808594 55.21430664 -163.46679688 55.32470703 C-133.70948747 59.15303504 -104.76658869 65.00494084 -80 83 C-80 83.66 -80 84.32 -80 85 C-79.41863281 85.268125 -78.83726562 85.53625 -78.23828125 85.8125 C-64.75233136 92.96734951 -56.19869006 109.90847235 -51.640625 123.96484375 C-42.53012425 155.42247858 -49.42982395 186.04693057 -64.796875 214.15625 C-65.77966463 215.9383752 -66.76406036 217.71961556 -67.75 219.5 C-68.50990234 220.87671875 -68.50990234 220.87671875 -69.28515625 222.28125 C-70.52202619 224.5216182 -71.76033274 226.76117883 -73 229 C-73.66 229 -74.32 229 -75 229 C-75.25652344 229.71929688 -75.51304687 230.43859375 -75.77734375 231.1796875 C-79.37208604 239.47171285 -86.19532893 246.59149349 -91.921875 253.4921875 C-93.36730821 255.23648848 -94.77103352 257.01585074 -96.140625 258.8203125 C-97.06101562 259.89925781 -97.06101562 259.89925781 -98 261 C-98.66 261 -99.32 261 -100 261 C-100.26296875 261.57878906 -100.5259375 262.15757812 -100.796875 262.75390625 C-104.12341628 268.96416999 -109.58424549 273.64384963 -115 278 C-116.299375 279.3303125 -116.299375 279.3303125 -117.625 280.6875 C-120 283 -120 283 -122.1875 284.0625 C-124.15132336 284.83259106 -124.15132336 284.83259106 -124.73828125 286.76171875 C-126.50799941 289.9011878 -129.13638819 291.67658296 -132 293.75 C-132.5465625 294.16121094 -133.093125 294.57242187 -133.65625 294.99609375 C-137.72799003 298 -137.72799003 298 -140 298 C-140 298.66 -140 299.32 -140 300 C-142.08984375 301.515625 -142.08984375 301.515625 -144.9375 303.25 C-148.51173505 305.45479633 -152.04002717 307.68259129 -155.5 310.0625 C-159.50785369 312.75583483 -163.66141929 315.06609841 -167.93359375 317.3125 C-170.53760601 318.74553605 -173.04322311 320.25866508 -175.5703125 321.8203125 C-181.32790978 325.29146645 -187.32003583 328.10088062 -193.4375 330.875 C-194.5711499 331.39312256 -195.7047998 331.91124512 -196.87280273 332.44506836 C-203.73488889 335.56481412 -210.62191925 338.6213486 -217.5625 341.5625 C-218.29202881 341.8723584 -219.02155762 342.1822168 -219.77319336 342.50146484 C-228.13441536 345.9855497 -236.72532156 348.55268726 -245.4375 351 C-247.2072234 351.49931946 -248.97675544 351.99931768 -250.74609375 352.5 C-251.6160498 352.74564697 -252.48600586 352.99129395 -253.38232422 353.24438477 C-255.98512292 353.9957056 -258.57191023 354.79001586 -261.16015625 355.58984375 C-273.31868224 359.2518348 -286.11241289 360.51046561 -298.70922852 361.75048828 C-300.72074387 361.96958331 -302.72664915 362.23896499 -304.73095703 362.51635742 C-308.97301592 363.04871057 -313.15423934 363.16080525 -317.42578125 363.16796875 C-318.20668625 363.17229416 -318.98759125 363.17661957 -319.79216003 363.18107605 C-322.29900308 363.19111419 -324.80564106 363.19127323 -327.3125 363.1875 C-328.59713135 363.18559662 -328.59713135 363.18559662 -329.90771484 363.18365479 C-350.44729711 363.12540217 -368.27417091 360.9648613 -388 355 C-389.15371094 354.67 -390.30742187 354.34 -391.49609375 354 C-399.45460949 351.58112954 -406.70820444 347.8337652 -414.05859375 343.99951172 C-416.05180949 342.97332645 -418.06325604 341.99068715 -420.078125 341.0078125 C-423.71599208 339.19331322 -427.11078778 337.1259162 -430.5 334.875 C-431.5415625 334.19179688 -432.583125 333.50859375 -433.65625 332.8046875 C-434.4296875 332.20914062 -435.203125 331.61359375 -436 331 C-436 330.34 -436 329.68 -436 329 C-436.86625 328.62875 -436.86625 328.62875 -437.75 328.25 C-440.32939979 326.81700012 -442.06121592 325.21575324 -444 323 C-444 322.34 -444 321.68 -444 321 C-445.32 320.34 -446.64 319.68 -448 319 C-448 318.34 -448 317.68 -448 317 C-448.66 317 -449.32 317 -450 317 C-465.49768748 299.6761519 -469.44856463 274.64335556 -468.28369141 252.40576172 C-466.71704831 233.59795514 -461.81212496 215.96799788 -454.25 198.75 C-453.83878906 197.80253906 -453.42757812 196.85507812 -453.00390625 195.87890625 C-452.00709936 193.58393225 -451.00579366 191.29104599 -450 189 C-449.34 189 -448.68 189 -448 189 C-447.89042969 188.27039063 -447.78085937 187.54078125 -447.66796875 186.7890625 C-446.95984895 183.83235175 -445.9399068 181.92930254 -444.3125 179.375 C-442.07773593 175.78551022 -439.98470229 172.1712539 -438 168.4375 C-435.66235243 164.09966055 -433.10733229 160.00808507 -430.31640625 155.94921875 C-429.22030875 154.32621384 -428.22166942 152.63792148 -427.25 150.9375 C-426.8375 150.298125 -426.425 149.65875 -426 149 C-425.34 149 -424.68 149 -424 149 C-423.67 147.68 -423.34 146.36 -423 145 C-422.34 145 -421.68 145 -421 145 C-420.68482422 143.99453125 -420.68482422 143.99453125 -420.36328125 142.96875 C-418.53130366 138.97934322 -415.95689686 135.88221382 -413.1875 132.5 C-412.66607422 131.84902344 -412.14464844 131.19804687 -411.60742188 130.52734375 C-408.58925689 126.79702748 -405.43181083 123.36165457 -402 120 C-401.0262591 118.86723106 -400.06559521 117.72293847 -399.125 116.5625 C-396.53822228 113.49693566 -393.73826277 110.95090443 -390.65234375 108.3984375 C-389.20316132 107.17194267 -387.84246402 105.84246402 -386.5 104.5 C-384.05157234 102.05157234 -381.50529386 99.83458358 -378.84375 97.625 C-377.38796358 96.341934 -375.99541316 94.98713815 -374.62890625 93.609375 C-348.82784431 68 -348.82784431 68 -340 68 C-340 67.34 -340 66.68 -340 66 C-337.8828125 64.4921875 -337.8828125 64.4921875 -335.125 62.875 C-334.22007812 62.33617187 -333.31515625 61.79734375 -332.3828125 61.2421875 C-330 60 -330 60 -328 60 C-328 59.34 -328 58.68 -328 58 C-325.97265625 56.625 -325.97265625 56.625 -323.0625 55 C-321.96164062 54.37867188 -320.86078125 53.75734375 -319.7265625 53.1171875 C-318.82212402 52.60816895 -318.82212402 52.60816895 -317.89941406 52.08886719 C-315.94209663 50.96680603 -314.01277809 49.80637322 -312.0859375 48.6328125 C-303.17119727 43.22523195 -294.10728725 38.52469409 -284.640625 34.16015625 C-280.26971792 32.1442794 -275.9763883 29.99617179 -271.6875 27.8125 C-196.56395367 -10.07372086 -87.11090758 -23.85223115 0 0 Z M-135 81 C-132.61292343 83.45527876 -130.27958729 85.78493285 -127.5625 87.875 C-124.89266129 90.08901259 -122.81143401 92.44395438 -120.625 95.12109375 C-118.92709958 97.13978698 -118.92709958 97.13978698 -116.5625 99.36328125 C-98.34831874 118.10500739 -92.33246862 144.95170767 -92.52124023 170.28833008 C-92.91829677 183.80781756 -95.00463244 197.40837101 -100 210 C-100.28875 211.2375 -100.5775 212.475 -100.875 213.75 C-103.45815636 224.49926357 -109.09489312 234.42838813 -114.09350586 244.21728516 C-114.93066304 245.86364166 -115.75311933 247.51745135 -116.57421875 249.171875 C-117.88760506 251.7770577 -119.26098457 254.33040491 -120.6875 256.875 C-121.12449219 257.65617188 -121.56148437 258.43734375 -122.01171875 259.2421875 C-122.33785156 259.82226562 -122.66398437 260.40234375 -123 261 C-118.48334444 259.49444815 -115.98626347 256.28214252 -113.125 252.5625 C-111.37352311 250.45042493 -109.85505915 249.00797751 -107.75 247.3125 C-103.12213028 243.45925225 -99.61423176 238.78621068 -96 234 C-95.46632813 233.29746094 -94.93265625 232.59492187 -94.3828125 231.87109375 C-91.84303126 228.76324739 -91.84303126 228.76324739 -91 225 C-90.34 225 -89.68 225 -89 225 C-87.4817135 222.77722856 -86.1007607 220.57242431 -84.75 218.25 C-84.14720215 217.22652466 -84.14720215 217.22652466 -83.53222656 216.18237305 C-77.88198088 206.48896718 -72.97681284 196.49576554 -69 186 C-68.53078125 184.86304688 -68.0615625 183.72609375 -67.578125 182.5546875 C-63.96746879 172.95827145 -63.49139578 163.41516636 -63.4375 153.25 C-63.42291748 151.94764404 -63.40833496 150.64528809 -63.39331055 149.3034668 C-63.57061824 132.35607525 -69.70891656 117.61644763 -81 105 C-82.92843555 103.20043366 -84.91251134 101.62360229 -87 100 C-87.60585938 99.36578125 -88.21171875 98.7315625 -88.8359375 98.078125 C-96.21811625 90.98910137 -106.48477853 87.27160637 -116 84 C-116.89976562 83.67902344 -117.79953125 83.35804688 -118.7265625 83.02734375 C-124.34372625 81.15785427 -129.08567164 80.71382282 -135 81 Z M-268 103 C-269.22282644 103.5481052 -270.44687332 104.09349257 -271.671875 104.63671875 C-286.36240482 111.34350089 -302.69089072 121.83756292 -311.3125 135.875 C-313.80368098 139.90184049 -313.80368098 139.90184049 -316 141 C-318.20930002 144.54685816 -320.07365464 148.29338286 -322 152 C-322.78503906 153.50820313 -322.78503906 153.50820313 -323.5859375 155.046875 C-325.09953949 158.01261291 -326.56342889 160.9962604 -328 164 C-328.37125 164.763125 -328.7425 165.52625 -329.125 166.3125 C-338.83478164 188.1595087 -339.09939008 214.80716613 -330.8671875 237.0625 C-329.69690641 239.79057247 -328.40217755 242.38417297 -327 245 C-326.26330078 246.44246094 -326.26330078 246.44246094 -325.51171875 247.9140625 C-314.96852816 267.39002794 -296.20349389 281.80161137 -275.06640625 288.22265625 C-247.44709926 295.22423853 -217.03293042 291.70028502 -192.5234375 277.28125 C-190.08489988 275.77653586 -187.90214388 274.14488648 -185.7265625 272.28125 C-183 270 -183 270 -180 269 C-180 268.34 -180 267.68 -180 267 C-179.43925781 266.75636719 -178.87851562 266.51273438 -178.30078125 266.26171875 C-173.60427074 263.68621299 -169.89469082 259.63383146 -166 256 C-165.39929688 255.46503906 -164.79859375 254.93007813 -164.1796875 254.37890625 C-150.13168387 241.31494152 -141.16030844 223.63769821 -135.2265625 205.6796875 C-134 202 -134 202 -132.8984375 199.5703125 C-128.54432245 187.11375727 -129.51264084 168.51463745 -133 156 C-133.38478516 154.60007812 -133.38478516 154.60007812 -133.77734375 153.171875 C-139.57105815 134.17445953 -151.12278196 115.86205754 -168.9375 106.0625 C-169.62714844 105.72347656 -170.31679688 105.38445312 -171.02734375 105.03515625 C-173 104 -173 104 -174.98828125 102.4921875 C-178.63172001 99.78967564 -182.74116717 98.4763222 -187 97 C-188.56234375 96.43345703 -188.56234375 96.43345703 -190.15625 95.85546875 C-214.69881218 88.30596321 -245.09171067 91.63974177 -268 103 Z M-364 153 C-367.63633539 156.47998507 -367.63633539 156.47998507 -369 161 C-369.66 161 -370.32 161 -371 161 C-372.32967768 162.88371004 -373.562695 164.83595931 -374.75 166.8125 C-375.10199463 167.39765381 -375.45398926 167.98280762 -375.81665039 168.58569336 C-382.07848182 178.29916308 -382.07848182 178.29916308 -386 189 C-386.66 189 -387.32 189 -388 189 C-388.61488281 190.64548828 -388.61488281 190.64548828 -389.2421875 192.32421875 C-389.78642886 193.77865686 -390.33070133 195.23308333 -390.875 196.6875 C-391.14441406 197.40873047 -391.41382813 198.12996094 -391.69140625 198.87304688 C-391.95566406 199.57880859 -392.21992188 200.28457031 -392.4921875 201.01171875 C-392.73308105 201.65584717 -392.97397461 202.29997559 -393.22216797 202.96362305 C-393.79600837 204.46594658 -394.40279742 205.95578237 -395.02734375 207.43774414 C-396.66247555 211.74515082 -397.31103372 216.22796512 -398.125 220.75 C-398.30675781 221.70132813 -398.48851562 222.65265625 -398.67578125 223.6328125 C-400.35204797 232.83337422 -400.41735246 240.82305446 -398.3125 249.9375 C-398.13170898 250.72382812 -397.95091797 251.51015625 -397.76464844 252.3203125 C-393.89610872 268.2689771 -383.33450595 281.41131537 -369.71875 290.52734375 C-367.51566375 291.77655751 -365.27699515 292.89186236 -363 294 C-362.1440625 294.47953125 -361.288125 294.9590625 -360.40625 295.453125 C-354.39888266 298.72086878 -348.36436132 301.00284638 -341.8125 302.875 C-341.07652588 303.09027344 -340.34055176 303.30554688 -339.58227539 303.52734375 C-334.26714059 304.96037195 -329.50093728 305.1849969 -324 305 C-325.98 304.01 -325.98 304.01 -328 303 C-328 302.34 -328 301.68 -328 301 C-328.58007812 300.69707031 -329.16015625 300.39414062 -329.7578125 300.08203125 C-337.34105156 296.01511261 -342.5268917 291.7361333 -348 285 C-348.804375 284.21625 -349.60875 283.4325 -350.4375 282.625 C-368.99903972 263.6107398 -375.2028795 235.0416918 -375.11401367 209.28442383 C-374.92550115 203.85389085 -374.16343695 198.54904262 -373.3125 193.1875 C-373.13460937 192.05183594 -372.95671875 190.91617188 -372.7734375 189.74609375 C-371.33988286 181.08544641 -369.27237878 173.14481659 -366 165 C-365.60167969 163.99324219 -365.20335937 162.98648438 -364.79296875 161.94921875 C-364.11076962 160.24492622 -363.41551946 158.54571192 -362.69921875 156.85546875 C-361.88245525 155.01855362 -361.88245525 155.01855362 -362 153 C-362.66 153 -363.32 153 -364 153 Z " fill="#FEFEFE" transform="translate(740,311)"/>
<path d="M0 0 C3.35133911 1.21417368 5.08664248 3.18441623 7.3828125 5.86328125 C7.7128125 6.85328125 8.0428125 7.84328125 8.3828125 8.86328125 C6.76332208 10.36922806 5.13705276 11.86788793 3.5078125 13.36328125 C2.60289062 14.19859375 1.69796875 15.03390625 0.765625 15.89453125 C-1.6171875 17.86328125 -1.6171875 17.86328125 -3.6171875 17.86328125 C-3.6171875 18.52328125 -3.6171875 19.18328125 -3.6171875 19.86328125 C-5.28198242 21.25195312 -5.28198242 21.25195312 -7.59765625 22.83203125 C-8.43232422 23.40308594 -9.26699219 23.97414063 -10.12695312 24.5625 C-11.01060547 25.15675781 -11.89425781 25.75101563 -12.8046875 26.36328125 C-13.66900391 26.95753906 -14.53332031 27.55179688 -15.42382812 28.1640625 C-19.41234347 30.87197407 -23.07346466 33.18856471 -27.6171875 34.86328125 C-27.6171875 35.52328125 -27.6171875 36.18328125 -27.6171875 36.86328125 C-29.46441574 38.08592833 -31.37266635 39.21707819 -33.3046875 40.30078125 C-34.36042969 40.89761719 -35.41617188 41.49445312 -36.50390625 42.109375 C-37.53128906 42.68816406 -38.55867187 43.26695312 -39.6171875 43.86328125 C-42.09394459 45.33292326 -44.55501705 46.82524876 -47.01171875 48.328125 C-47.80964844 48.81410156 -48.60757813 49.30007813 -49.4296875 49.80078125 C-50.61498047 50.52587891 -50.61498047 50.52587891 -51.82421875 51.265625 C-54.6528563 52.8836848 -57.52603291 54.33841519 -60.4465332 55.78100586 C-64.26453058 57.68463676 -68.03155557 59.68511293 -71.8046875 61.67578125 C-72.63693848 62.11301514 -73.46918945 62.55024902 -74.32666016 63.00073242 C-77.99782388 64.93342752 -81.66174513 66.87348889 -85.28515625 68.89453125 C-91.53420292 72.36537812 -97.73683916 75.22549219 -104.44921875 77.6875 C-107.46602304 78.80717705 -110.41120397 80.03047455 -113.3671875 81.30078125 C-160.50735427 101.10338763 -160.50735427 101.10338763 -180.6171875 99.86328125 C-183.36213043 97.49695114 -183.61067222 95.90970263 -184.1171875 92.30078125 C-183.6171875 88.86328125 -183.6171875 88.86328125 -181.6796875 87.05078125 C-178.61327454 85.86176398 -175.5994862 85.09865801 -172.37890625 84.44921875 C-150.04835778 79.71147862 -128.68094605 71.48160132 -107.6171875 62.86328125 C-106.89805176 62.57050293 -106.17891602 62.27772461 -105.43798828 61.97607422 C-95.84637425 58.03957827 -86.85870743 53.35453689 -77.84765625 48.234375 C-73.28167556 45.64832373 -68.62630005 43.30510223 -63.90234375 41.01953125 C-61.43614336 39.82874291 -61.43614336 39.82874291 -58.6171875 37.86328125 C-57.6271875 37.86328125 -56.6371875 37.86328125 -55.6171875 37.86328125 C-55.6171875 37.20328125 -55.6171875 36.54328125 -55.6171875 35.86328125 C-55.0603125 35.56035156 -54.5034375 35.25742187 -53.9296875 34.9453125 C-49.27503323 32.38997021 -44.75863554 29.73359115 -40.34375 26.78125 C-38.6171875 25.86328125 -38.6171875 25.86328125 -35.6171875 25.86328125 C-35.6171875 25.20328125 -35.6171875 24.54328125 -35.6171875 23.86328125 C-34.0078125 22.609375 -34.0078125 22.609375 -31.8671875 21.30078125 C-31.17109375 20.86636719 -30.475 20.43195312 -29.7578125 19.984375 C-27.69721005 18.90519087 -25.88853828 18.31857454 -23.6171875 17.86328125 C-23.6171875 17.20328125 -23.6171875 16.54328125 -23.6171875 15.86328125 C-22.04353203 14.58879982 -20.40481618 13.39429177 -18.7421875 12.23828125 C-13.8767567 8.8211939 -9.35800647 5.17246726 -4.90625 1.234375 C-2.6171875 -0.13671875 -2.6171875 -0.13671875 0 0 Z " fill="#FEFEFE" transform="translate(671.6171875,646.13671875)"/>
<path d="M0 0 C1.73849628 1.73849628 1.17216296 4.0786637 1.1875 6.4375 C1.20167969 7.42621094 1.21585938 8.41492188 1.23046875 9.43359375 C1 12 1 12 -1 14 C-3.32412135 14.33350121 -5.66543452 14.54960394 -8.0078125 14.7109375 C-9.47332734 14.82004348 -10.93882132 14.92943005 -12.40429688 15.0390625 C-13.17507568 15.09352539 -13.94585449 15.14798828 -14.73999023 15.20410156 C-26.39240815 16.03905832 -37.97417567 17.04115451 -49.5 19 C-50.41539551 19.15388184 -51.33079102 19.30776367 -52.27392578 19.46630859 C-57.79127768 20.45392584 -63.15746413 21.78869592 -68.54785156 23.32250977 C-70.77259743 23.93717223 -72.99201929 24.46224017 -75.25 24.9375 C-86.34063817 27.34507626 -97.14334304 30.54594363 -107.86181641 34.25976562 C-110.26369748 35.09129148 -112.66904744 35.91241704 -115.07421875 36.734375 C-116.84137153 37.34309518 -118.60830068 37.95246498 -120.375 38.5625 C-121.19508545 38.84327393 -122.0151709 39.12404785 -122.86010742 39.41333008 C-127.67201325 41.08934341 -132.32585286 42.968752 -136.96386719 45.07836914 C-139.59377693 46.26876594 -142.26236047 47.35318678 -144.9375 48.4375 C-151.12069509 50.99416464 -157.03841602 53.98825814 -163 57.015625 C-165.73188138 58.31091359 -167.70644086 59.0133436 -170.75 58.875 C-173.30466383 57.88151962 -174.49190676 57.30182652 -176 55 C-176.4375 52.0625 -176.4375 52.0625 -176 49 C-173.17992469 45.59213381 -170.26455033 43.95532864 -166.25 42.1875 C-165.10402344 41.67832031 -163.95804687 41.16914063 -162.77734375 40.64453125 C-162.16616699 40.37850098 -161.55499023 40.1124707 -160.92529297 39.83837891 C-158.92643867 38.96796733 -156.93366472 38.08461426 -154.94140625 37.19921875 C-145.59755516 33.0607695 -136.26170224 28.99586833 -126.53125 25.84375 C-123.4165732 24.8055244 -120.33626742 23.68229614 -117.25 22.5625 C-108.68198747 19.49059918 -100.06805406 16.73476733 -91.22753906 14.56030273 C-88.78544866 13.94603295 -86.35600255 13.29245046 -83.92578125 12.6328125 C-65.58028652 7.67934886 -47.33844986 4.18246629 -28.5 1.75 C-27.82526642 1.66087341 -27.15053284 1.57174683 -26.45535278 1.47991943 C-17.66290431 0.33075321 -8.87581629 -0.58955096 0 0 Z " fill="#FEFEFE" transform="translate(623,268)"/>
</svg>
