<?xml version="1.0" encoding="UTF-8"?>
<svg version="1.1" xmlns="http://www.w3.org/2000/svg" width="1024" height="1024">
<path d="M0 0 C1.88123559 0.46205786 3.76255195 0.92379316 5.64453125 1.3828125 C15.02477464 3.84065405 23.42965536 7.5170505 32 12 C34.24794334 13.12910396 36.49788932 14.2542313 38.75 15.375 C40.5 16.25 42.25 17.125 44 18 C44 18.66 44 19.32 44 20 C45.07314453 20.38285156 45.07314453 20.38285156 46.16796875 20.7734375 C56.28220336 25.15394738 65.67571598 34.04059763 72 43 C72 43.66 72 44.32 72 45 C72.99 45.33 73.98 45.66 75 46 C84.50890362 57.94188536 89.94942718 71.48120903 94 86 C94.34458252 87.20922119 94.68916504 88.41844238 95.04418945 89.66430664 C96.16590876 94.20233441 96.33900886 98.57173714 96.37109375 103.23046875 C96.38211624 104.09532394 96.39313873 104.96017914 96.40449524 105.85124207 C96.43120657 108.63017017 96.43761983 111.40844944 96.4375 114.1875 C96.43923218 115.13208069 96.44096436 116.07666138 96.44274902 117.04986572 C96.43148828 130.97733405 95.59164929 143.74621113 91 157 C90.48179687 158.72283203 90.48179687 158.72283203 89.953125 160.48046875 C84.83320206 177.03628515 76.60710059 192.36186369 68.3125 207.5 C67.86116699 208.32435547 67.40983398 209.14871094 66.94482422 209.99804688 C64.78798537 213.89886433 62.58623572 217.77135848 60.29296875 221.59375 C59.90004639 222.25052734 59.50712402 222.90730469 59.10229492 223.58398438 C58.7385376 224.05126953 58.37478027 224.51855469 58 225 C57.34 225 56.68 225 56 225 C55.89558594 225.56847656 55.79117188 226.13695312 55.68359375 226.72265625 C50.80784714 242.96585781 26.00610823 271.4027547 12 280 C9.19029777 280.26380215 7.6358978 280.37276767 5.1875 278.9375 C3.15672196 275.6241253 3.32802287 273.84859627 4 270 C6.35156783 266.38264998 9.13914186 263.22103812 12 260 C13.1252664 258.62521801 14.25030322 257.25024804 15.375 255.875 C16.24125 254.92625 17.1075 253.9775 18 253 C18.66 253 19.32 253 20 253 C20.26876953 252.41734375 20.53753906 251.8346875 20.81445312 251.234375 C22.01144891 248.97842248 23.33348837 247.20665421 24.96875 245.25 C25.53980469 244.5590625 26.11085938 243.868125 26.69921875 243.15625 C27.89973958 241.71875 29.10026042 240.28125 30.30078125 238.84375 C30.87183594 238.1528125 31.44289063 237.461875 32.03125 236.75 C32.55267578 236.12609375 33.07410156 235.5021875 33.61132812 234.859375 C35.01166417 232.98438215 36.021576 231.12109183 37 229 C37.66 229 38.32 229 39 229 C39.20625 228.34 39.4125 227.68 39.625 227 C40.83216721 224.36618064 41.98382691 222.62201603 43.75 220.375 C47.46930579 215.59303541 50.21863613 210.36546788 53 205 C53.66 205 54.32 205 55 205 C55.309375 204.05125 55.61875 203.1025 55.9375 202.125 C57 199 57 199 58 197 C58.66 197 59.32 197 60 197 C60.185625 195.576875 60.185625 195.576875 60.375 194.125 C61 191 61 191 63 189 C63.705868 187.11768534 64.40740861 185.23358143 65.08203125 183.33984375 C66.07174701 180.81712145 67.25096296 178.46680253 68.5 176.0625 C70.83920968 171.46066191 72.48673513 166.92354121 74 162 C74.40347656 160.8140625 74.80695312 159.628125 75.22265625 158.40625 C82.78014734 135.96396821 83.58482812 111.03419892 78 88 C77.77183594 87.04222656 77.54367187 86.08445312 77.30859375 85.09765625 C75.66336771 78.99621795 73.07317567 73.50645722 70 68 C69.27876953 66.70449219 69.27876953 66.70449219 68.54296875 65.3828125 C58.52232826 48.55983942 43.44231584 35.58901917 26 27 C24.68515625 26.30777344 24.68515625 26.30777344 23.34375 25.6015625 C13.66083141 20.54560817 3.63619715 17.37150438 -7 15 C-7.67047363 14.8453125 -8.34094727 14.690625 -9.03173828 14.53125 C-23.18416482 11.3014562 -37.41948495 9.65312588 -51.86108398 8.29833984 C-53.78909607 8.11509097 -55.71609395 7.92016185 -57.64086914 7.70556641 C-66.51161282 6.7610946 -75.40183623 6.75818487 -84.3125 6.75 C-85.61000183 6.74799088 -85.61000183 6.74799088 -86.93371582 6.74594116 C-112.03902578 6.75426635 -137.24622384 8.39330629 -162.00488281 12.67236328 C-165.26326266 13.20745209 -168.53550305 13.59456377 -171.8125 14 C-184.17538055 15.63232838 -196.07528881 18.39539865 -208 22 C-209.54023001 22.46008616 -211.08060291 22.91969417 -212.62109375 23.37890625 C-216.00196299 24.38812095 -219.38045647 25.40487612 -222.7578125 26.42578125 C-226.26786597 27.48483779 -229.78333607 28.52212728 -233.3046875 29.54296875 C-242.45344506 32.20811955 -251.32008677 35.01759663 -260 39 C-260.94875 39.42667969 -261.8975 39.85335937 -262.875 40.29296875 C-265.58114415 41.52523082 -268.2766573 42.77766765 -270.96679688 44.04443359 C-272.46414527 44.74815857 -273.96308098 45.44850857 -275.46289062 46.14697266 C-288.99675009 52.3534838 -288.99675009 52.3534838 -301.9296875 59.6953125 C-304.87242769 61.54979405 -307.92865153 63.17940516 -310.9921875 64.82421875 C-313.07660953 65.98147968 -313.07660953 65.98147968 -315.0703125 67.64453125 C-317 69 -317 69 -320 69 C-320 69.66 -320 70.32 -320 71 C-321.86328125 72.5078125 -321.86328125 72.5078125 -324.3125 74.125 C-325.11300781 74.66382813 -325.91351563 75.20265625 -326.73828125 75.7578125 C-329 77 -329 77 -332 77 C-332 77.66 -332 78.32 -332 79 C-333.60148166 80.14788281 -335.26096077 81.21482142 -336.9375 82.25 C-342.50800946 85.86455359 -347.64044186 89.8235759 -352.75 94.0625 C-353.79401978 94.9282666 -353.79401978 94.9282666 -354.85913086 95.81152344 C-359.06783842 99.32832724 -363.1880163 102.9262087 -367.24707031 106.61499023 C-369 108 -369 108 -372 109 C-373.20882096 111.00016466 -373.20882096 111.00016466 -374 113 C-374.66 113 -375.32 113 -376 113 C-376.99 114.98 -376.99 114.98 -378 117 C-378.66 117 -379.32 117 -380 117 C-380.66 118.32 -381.32 119.64 -382 121 C-382.66 121 -383.32 121 -384 121 C-384.66 122.32 -385.32 123.64 -386 125 C-386.66 125 -387.32 125 -388 125 C-388.268125 125.5775 -388.53625 126.155 -388.8125 126.75 C-390.02929189 129.05550043 -391.30333879 131.02056192 -393 133 C-393.66 133 -394.32 133 -395 133 C-395.35578125 133.79664063 -395.35578125 133.79664063 -395.71875 134.609375 C-397.37378384 137.69742595 -399.40548128 140.4528472 -401.5 143.25 C-401.90347656 143.80429687 -402.30695313 144.35859375 -402.72265625 144.9296875 C-403.76450171 146.32569165 -404.87745412 147.66802392 -406 149 C-406.66 149 -407.32 149 -408 149 C-408.27835693 149.58990723 -408.55671387 150.17981445 -408.84350586 150.78759766 C-409.92315126 152.85298642 -411.07808613 154.56195794 -412.50390625 156.3984375 C-412.99310547 157.03587891 -413.48230469 157.67332031 -413.98632812 158.33007812 C-414.50646484 159.00490234 -415.02660156 159.67972656 -415.5625 160.375 C-426.75468743 175.10440469 -434.68712591 189.62648086 -441 207 C-441.39703125 208.09054687 -441.7940625 209.18109375 -442.203125 210.3046875 C-442.85194586 212.09136584 -443.49827059 213.87895539 -444.140625 215.66796875 C-444.71516711 217.2270671 -445.32906933 218.77219854 -445.98046875 220.30078125 C-449.89710117 230.6701031 -451.694329 241.96926375 -452 253 C-452.03996094 254.21429687 -452.07992187 255.42859375 -452.12109375 256.6796875 C-452.48965403 277.88274342 -447.10366095 295.94478734 -432.47045898 311.69970703 C-427.24040195 317.04888971 -421.29544969 320.99310424 -415 325 C-414.06027344 325.6496875 -413.12054688 326.299375 -412.15234375 326.96875 C-404.10168159 332.43625006 -395.75264745 335.22741315 -386.3203125 337.4375 C-383.71961344 338.0679725 -381.13818533 338.76268813 -378.55517578 339.46166992 C-362.1702952 343.88811708 -346.98375772 345.16925747 -330.02929688 345.13037109 C-327.26947467 345.12503764 -324.50981711 345.13033028 -321.75 345.13671875 C-307.38421292 345.14339808 -293.2762649 345.05748519 -279.22265625 341.74609375 C-276.35935401 341.0831959 -273.52683905 340.57908808 -270.625 340.125 C-263.2147478 338.80020201 -256.13083339 336.35944549 -249 334 C-248.08573242 333.69803711 -247.17146484 333.39607422 -246.22949219 333.08496094 C-240.14762485 331.07256343 -234.07196708 329.04205231 -228 327 C-228.85055969 327.06983093 -229.70111938 327.13966187 -230.57745361 327.21160889 C-238.99569674 327.86349561 -247.35504005 328.1727333 -255.796875 328.203125 C-257.70560394 328.21167511 -257.70560394 328.21167511 -259.65289307 328.22039795 C-262.33194519 328.22977887 -265.01088734 328.23671011 -267.68994141 328.24023438 C-271.69840645 328.24673244 -275.70649854 328.28094211 -279.71484375 328.3125 C-302.56339302 328.40674697 -325.21575979 327.41124912 -347 320 C-348.13050781 319.61972656 -349.26101563 319.23945312 -350.42578125 318.84765625 C-359.29671048 315.63072587 -367.63279572 311.32860504 -376 307 C-376 306.34 -376 305.68 -376 305 C-376.54140625 304.938125 -377.0828125 304.87625 -377.640625 304.8125 C-381.00408978 303.65422074 -383.21642253 301.40408351 -385.75 299 C-386.28077148 298.50161621 -386.81154297 298.00323242 -387.35839844 297.48974609 C-403.08715931 282.55743855 -413.58205398 265.33914479 -414.30078125 243.23828125 C-414.32006326 241.26311109 -414.3235923 239.28773313 -414.3125 237.3125 C-414.30512817 235.74157593 -414.30512817 235.74157593 -414.29760742 234.13891602 C-414.03900515 216.87621996 -409.57244032 200.50894027 -402 185 C-401.72285156 184.42137207 -401.44570313 183.84274414 -401.16015625 183.24658203 C-396.9419918 174.45801014 -392.43763776 166.10833595 -387 158 C-386.39671875 157.04867187 -385.7934375 156.09734375 -385.171875 155.1171875 C-377.2312116 142.75428473 -367.62864106 131.45673861 -356.41796875 121.9296875 C-351.1903785 117.37508687 -346.36522599 112.43502838 -341.5 107.5 C-328.73406048 94.55090496 -315.49375947 83.59137491 -300 74 C-299.23300781 73.49082031 -298.46601563 72.98164063 -297.67578125 72.45703125 C-296.97839844 71.99683594 -296.28101563 71.53664063 -295.5625 71.0625 C-294.96566406 70.66160156 -294.36882812 70.26070313 -293.75390625 69.84765625 C-292 69 -292 69 -288 69 C-288 68.34 -288 67.68 -288 67 C-271.83295832 58.82721329 -271.83295832 58.82721329 -265.27734375 55.99609375 C-262.28839808 54.68875045 -259.33399823 53.31120066 -256.375 51.9375 C-248.35743466 48.23494379 -240.31146039 44.97286493 -232 42 C-230.83210938 41.57203125 -229.66421875 41.1440625 -228.4609375 40.703125 C-222.34098966 38.47530673 -216.34125119 36.47207617 -210 35 C-209.07179443 34.68409912 -208.14358887 34.36819824 -207.18725586 34.04272461 C-197.10026333 30.74272116 -186.42928173 29.31518025 -175.9375 27.9375 C-174.01550781 27.68371582 -174.01550781 27.68371582 -172.0546875 27.42480469 C-153.7829575 25.07744458 -135.4244869 23.77733118 -117 24 C-116.05753418 24.01063477 -115.11506836 24.02126953 -114.14404297 24.03222656 C-102.85113317 24.22682482 -91.78462374 25.10749998 -80.625 26.875 C-79.59785889 27.03645508 -78.57071777 27.19791016 -77.51245117 27.36425781 C-72.1309646 28.27450187 -67.06011564 29.47119076 -61.92626953 31.33300781 C-59.72439799 32.13279342 -59.72439799 32.13279342 -56.25 32.875 C-35.00224043 38.03996922 -16.49408583 49.95566992 -1 65 C-0.06027344 65.87269531 0.87945313 66.74539063 1.84765625 67.64453125 C4 70 4 70 4 73 C4.66 73 5.32 73 6 73 C20.4882304 88.74417607 23.97446121 115.15268824 23.3203125 135.5390625 C22.15814983 158.48968508 18.26882237 182.81611325 6.2109375 202.8046875 C4.89796931 205.18497176 3.88118933 207.64484725 2.83007812 210.14892578 C1.45429414 213.21692406 -0.23986422 216.10270161 -1.9375 219 C-2.27201172 219.5775 -2.60652344 220.155 -2.95117188 220.75 C-3.62214175 221.90836032 -4.2944859 223.06592579 -4.96826172 224.22265625 C-6.66140276 227.13937817 -8.32957702 230.0702201 -10 233 C-10.66 233 -11.32 233 -12 233 C-12.103125 233.56589844 -12.20625 234.13179687 -12.3125 234.71484375 C-14.64614261 242.47155356 -21.82865098 249.3337867 -26.91796875 255.4375 C-28.7023259 257.63363188 -30.3421298 259.85327103 -31.9375 262.1875 C-32.618125 263.115625 -33.29875 264.04375 -34 265 C-34.66 265 -35.32 265 -36 265 C-36.66 266.32 -37.32 267.64 -38 269 C-38.66 269 -39.32 269 -40 269 C-40.24105469 269.55816406 -40.48210937 270.11632812 -40.73046875 270.69140625 C-46.24685194 280.72273692 -57.19703396 289.84856387 -66 297 C-66.66 297 -67.32 297 -68 297 C-68 297.66 -68 298.32 -68 299 C-69.65483608 300.49877503 -71.37590512 301.92488473 -73.125 303.3125 C-76.30288635 305.84500583 -79.45449178 308.37255873 -82.5 311.0625 C-85 313 -85 313 -88 313 C-88.33 313.99 -88.66 314.98 -89 316 C-90.99609375 317.60546875 -90.99609375 317.60546875 -93.4375 319.1875 C-94.24058594 319.71730469 -95.04367187 320.24710938 -95.87109375 320.79296875 C-98 322 -98 322 -100 322 C-100 322.66 -100 323.32 -100 324 C-101.32 324.33 -102.64 324.66 -104 325 C-104 325.66 -104 326.32 -104 327 C-105.76031864 328.32247289 -107.58657125 329.55764141 -109.4375 330.75 C-110.52804687 331.45640625 -111.61859375 332.1628125 -112.7421875 332.890625 C-114.35480469 333.93476562 -114.35480469 333.93476562 -116 335 C-118.39140793 336.64972489 -120.78030082 338.30240802 -123.16015625 339.96875 C-125 341 -125 341 -128 341 C-128 341.66 -128 342.32 -128 343 C-128.69609375 343.38478516 -128.69609375 343.38478516 -129.40625 343.77734375 C-133.15663638 345.85544964 -136.90187462 347.94184749 -140.6328125 350.0546875 C-144.74721704 352.38416654 -148.87156072 354.69550083 -153 357 C-153.59522461 357.33402832 -154.19044922 357.66805664 -154.80371094 358.01220703 C-165.93217843 364.22733922 -177.48847732 369.46138679 -189.10400391 374.69335938 C-192.91079281 376.41093939 -196.70877242 378.14765494 -200.50634766 379.88549805 C-206.69574296 382.65175902 -212.98438106 385.07788239 -219.43359375 387.1640625 C-221.34807996 387.78765466 -223.25596199 388.43159139 -225.16015625 389.0859375 C-248.02103556 396.89694523 -271.29565864 402.46308065 -295 407 C-295.83611816 407.1664502 -296.67223633 407.33290039 -297.53369141 407.50439453 C-327.43484822 413.26456218 -358.45242611 413.37411996 -388.6875 410.6875 C-389.36142792 410.62882751 -390.03535583 410.57015503 -390.72970581 410.50970459 C-398.95058892 409.77180825 -406.90690367 408.5348754 -414.95092773 406.68237305 C-417.75228715 406.05543738 -420.53854693 405.56033634 -423.375 405.125 C-445.6418644 401.12671632 -470.02456832 391.41154923 -487.9609375 377.56640625 C-489.91223921 375.96461658 -489.91223921 375.96461658 -492 375 C-492 374.34 -492 373.68 -492 373 C-492.8353125 372.9071875 -492.8353125 372.9071875 -493.6875 372.8125 C-497.00943148 371.64533489 -498.59981091 369.56764415 -501 367 C-502.18349498 365.80850844 -503.37118783 364.62117555 -504.5625 363.4375 C-505.15289062 362.84324219 -505.74328125 362.24898437 -506.3515625 361.63671875 C-507.68548629 360.31227783 -509.05624612 359.02500358 -510.4375 357.75 C-512 356 -512 356 -512 353 C-512.66 353 -513.32 353 -514 353 C-531.24604832 333.72177402 -535.26634094 303.77316275 -534 279 C-532.8091275 258.38623045 -526.53934841 239.70359308 -518 221 C-517.33264175 219.47947002 -516.66598174 217.95863339 -516 216.4375 C-514.12253605 212.2241216 -512.12851476 208.09214457 -510 204 C-509.59265625 203.21367188 -509.1853125 202.42734375 -508.765625 201.6171875 C-505.63339998 195.72226962 -502.24477783 189.9976402 -498.75 184.3125 C-498.31349121 183.59255859 -497.87698242 182.87261719 -497.42724609 182.13085938 C-496.34067155 180.38456376 -495.1767644 178.68683674 -494 177 C-493.34 177 -492.68 177 -492 177 C-491.91363281 176.45085937 -491.82726562 175.90171875 -491.73828125 175.3359375 C-487.6335093 162.34835219 -471.85451915 148.92318104 -462.83984375 139.0859375 C-460.96130196 137.02842946 -460.96130196 137.02842946 -459.37890625 134.7265625 C-458.92386719 134.15679687 -458.46882813 133.58703125 -458 133 C-457.34 133 -456.68 133 -456 133 C-455.34 131.68 -454.68 130.36 -454 129 C-453.34 129 -452.68 129 -452 129 C-451.34 127.68 -450.68 126.36 -450 125 C-449.34 125 -448.68 125 -448 125 C-447.34 123.68 -446.68 122.36 -446 121 C-445.34 121 -444.68 121 -444 121 C-443.34 119.68 -442.68 118.36 -442 117 C-441.34 117 -440.68 117 -440 117 C-439.74476563 116.40832031 -439.48953125 115.81664062 -439.2265625 115.20703125 C-437.87444191 112.77407542 -436.50466543 111.46504943 -434.375 109.6875 C-433.31539062 108.79417969 -433.31539062 108.79417969 -432.234375 107.8828125 C-431.49703125 107.26148438 -430.7596875 106.64015625 -430 106 C-427.88443836 104.09895335 -425.77146074 102.19524828 -423.6640625 100.28515625 C-422 99 -422 99 -420 99 C-420 98.34 -420 97.68 -420 97 C-419.360625 96.896875 -418.72125 96.79375 -418.0625 96.6875 C-417.381875 96.460625 -416.70125 96.23375 -416 96 C-415.505 94.515 -415.505 94.515 -415 93 C-414.01 93 -413.02 93 -412 93 C-411.77054687 92.41605469 -411.54109375 91.83210938 -411.3046875 91.23046875 C-409.65940246 88.41772097 -407.80662072 87.14666492 -405.125 85.3125 C-404.26132812 84.71050781 -403.39765625 84.10851562 -402.5078125 83.48828125 C-400.25526457 82.15148879 -398.55604076 81.44582106 -396 81 C-396 80.34 -396 79.68 -396 79 C-394.25963506 77.69921177 -392.45418109 76.48511105 -390.625 75.3125 C-385.63854423 72.08075675 -380.77152096 68.7372838 -375.9609375 65.25 C-374 64 -374 64 -372 64 C-372 63.34 -372 62.68 -372 62 C-369.24075815 60.19588033 -368.11027897 59.9872755 -364.75 60.375 C-363.8425 60.58125 -362.935 60.7875 -362 61 C-361.67 62.32 -361.34 63.64 -361 65 C-363.08310086 66.60446931 -365.16647227 68.20858518 -367.25 69.8125 C-368.12978516 70.49022461 -368.12978516 70.49022461 -369.02734375 71.18164062 C-370.16995143 72.06106339 -371.31379744 72.93888 -372.45898438 73.81494141 C-373.74766407 74.80595079 -375.02385914 75.81316704 -376.296875 76.82421875 C-378 78 -378 78 -380 78 C-380 78.66 -380 79.32 -380 80 C-381.32 80.33 -382.64 80.66 -384 81 C-384 81.66 -384 82.32 -384 83 C-386.06904965 84.77389278 -388.13761169 86.4284447 -390.3125 88.0625 C-390.90740234 88.52205078 -391.50230469 88.98160156 -392.11523438 89.45507812 C-394.72155134 91.43820869 -396.87210058 92.95736686 -400 94 C-400.33 94.99 -400.66 95.98 -401 97 C-405.45714286 101 -405.45714286 101 -408 101 C-408 101.66 -408 102.32 -408 103 C-409.6376272 104.45402342 -411.33734196 105.83848678 -413.0625 107.1875 C-417.22539378 110.50279428 -421.04331955 113.88533966 -424.66015625 117.78515625 C-426 119 -426 119 -428 119 C-428 119.66 -428 120.32 -428 121 C-429.50390625 122.48046875 -429.50390625 122.48046875 -431.5625 124.1875 C-438.6578539 129.85095856 -438.6578539 129.85095856 -444 137 C-444.66 137 -445.32 137 -446 137 C-446.226875 137.54785156 -446.45375 138.09570312 -446.6875 138.66015625 C-448.39541328 141.70491832 -450.58864208 143.91310968 -453 146.4375 C-463.23339203 157.37780398 -471.67242098 169.58280425 -480 182 C-480.62648438 182.92167969 -481.25296875 183.84335937 -481.8984375 184.79296875 C-487.18053054 192.79050398 -491.50748461 201.31241695 -495.88232422 209.82763672 C-496.80990411 211.63052137 -497.74916403 213.42739106 -498.69140625 215.22265625 C-514.57723844 245.99875076 -524.69885585 281.78247652 -514.36572266 316.10693359 C-512.85914025 320.53924999 -511.00724568 324.76904098 -509 329 C-508.5359375 329.98484375 -508.071875 330.9696875 -507.59375 331.984375 C-501.97823336 343.02822439 -493.06043637 354.6232456 -482.5 361.375 C-481.675 361.91125 -480.85 362.4475 -480 363 C-480 363.66 -480 364.32 -480 365 C-479.443125 365.103125 -478.88625 365.20625 -478.3125 365.3125 C-475.52260494 366.14192826 -473.46698039 367.4509658 -471 369 C-469.28653005 369.98869186 -467.5653307 370.96302036 -465.84375 371.9375 C-464.47436846 372.72663513 -463.13440423 373.56727437 -461.8125 374.43359375 C-458.17798176 376.45781849 -454.43253619 377.73467474 -450.5 379.0625 C-449.01009696 379.57328714 -447.52050524 380.08498343 -446.03125 380.59765625 C-445.32846924 380.83822754 -444.62568848 381.07879883 -443.90161133 381.32666016 C-442.36946301 381.86917718 -440.85822189 382.47054076 -439.35546875 383.08984375 C-436.54532769 384.17568598 -433.75173159 384.84126844 -430.8125 385.5 C-429.08773437 385.88671875 -429.08773437 385.88671875 -427.328125 386.28125 C-423.81310968 387.04036129 -420.29490862 387.76518698 -416.76245117 388.43823242 C-414.88398932 388.82023337 -413.01300996 389.24059521 -411.15063477 389.69458008 C-401.63916664 391.95432256 -392.24772961 392.84767287 -382.51318359 393.50805664 C-379.87116263 393.68776101 -377.23059892 393.88271848 -374.58984375 394.08007812 C-361.06796503 395.06541522 -347.90752866 395.14450354 -334.375 394.125 C-333.146604 394.03404053 -331.91820801 393.94308105 -330.65258789 393.84936523 C-302.19042893 391.74608299 -302.19042893 391.74608299 -274.3828125 385.67578125 C-272.03249866 385.00921683 -269.71714705 384.54958289 -267.3125 384.125 C-260.69331924 382.86420366 -254.33853402 380.68170501 -247.93701172 378.6171875 C-245.21855793 377.75101014 -242.48379657 376.94126873 -239.75 376.125 C-213.72876149 368.13091305 -188.92952658 357.9347277 -165 345 C-163.91203125 344.41863281 -162.8240625 343.83726562 -161.703125 343.23828125 C-155.69100554 340.00294578 -149.82983493 336.55162299 -144 333 C-143.1646875 332.50242187 -142.329375 332.00484375 -141.46875 331.4921875 C-138.5528269 329.729715 -135.71120139 327.86400247 -132.8671875 325.98828125 C-131 325 -131 325 -128 325 C-128 324.34 -128 323.68 -128 323 C-126.13671875 321.4921875 -126.13671875 321.4921875 -123.6875 319.875 C-122.88699219 319.33617187 -122.08648438 318.79734375 -121.26171875 318.2421875 C-119 317 -119 317 -116 317 C-116 316.34 -116 315.68 -116 315 C-114.13671875 313.4921875 -114.13671875 313.4921875 -111.6875 311.875 C-110.88699219 311.33617187 -110.08648438 310.79734375 -109.26171875 310.2421875 C-107 309 -107 309 -104 309 C-103.67 308.01 -103.34 307.02 -103 306 C-100.671875 304.1328125 -100.671875 304.1328125 -97.75 302.125 C-93.10910225 298.87120569 -93.10910225 298.87120569 -89 295 C-88.34 294.34 -87.68 293.68 -87 293 C-86.01 293 -85.02 293 -84 293 C-83.76152344 292.41347656 -83.52304687 291.82695313 -83.27734375 291.22265625 C-81.73129035 288.53242877 -80.05226707 287.28191945 -77.5625 285.4375 C-67.81561269 277.87380277 -59.2154202 268.76595053 -51.6875 259 C-51.130625 258.34 -50.57375 257.68 -50 257 C-49.34 257 -48.68 257 -48 257 C-47.63261719 256.15308594 -47.63261719 256.15308594 -47.2578125 255.2890625 C-45.773105 252.58707928 -43.98033665 250.62705 -41.875 248.375 C-36.0110528 241.97194798 -30.38823724 235.5136724 -26 228 C-25.12301309 226.56523131 -24.24387002 225.13177962 -23.36328125 223.69921875 C-13.90030463 208.19769569 -4.89159342 192.60973631 0 175 C0.46921875 173.82953125 0.9384375 172.6590625 1.421875 171.453125 C9.99241303 148.73872969 10.31857019 119.336235 0.625 96.9375 C-0.22087464 95.2765098 -1.09522435 93.62965438 -2 92 C-2.44085937 91.1646875 -2.88171875 90.329375 -3.3359375 89.46875 C-15.22354615 68.18927374 -35.55991176 57.10784348 -58 50 C-58.8971875 49.71511719 -59.794375 49.43023437 -60.71875 49.13671875 C-68.1925323 46.94185798 -75.85042577 45.66336912 -83.52879333 44.41583252 C-85.23887781 44.12807482 -86.94587992 43.82160587 -88.64996338 43.50021362 C-95.75783688 42.20328717 -102.58373421 41.69268402 -109.80078125 41.69921875 C-110.88022507 41.69493362 -111.95966888 41.6906485 -113.07182312 41.68623352 C-115.3381582 41.68053363 -117.60451157 41.67995756 -119.87084961 41.68432617 C-123.29378223 41.68748274 -126.71584581 41.66398246 -130.13867188 41.63867188 C-140.66807615 41.60929127 -150.6832953 41.74178571 -160.93212891 44.3059082 C-164.32942992 45.07453201 -167.58727368 45.32635259 -171.0625 45.5 C-177.09478724 45.83323796 -182.72283747 46.88149384 -188.6015625 48.2421875 C-192.80363805 49.17920205 -197.02350236 49.84475807 -201.28125 50.47265625 C-204.30003495 51.05819644 -207.10430938 51.97373318 -210 53 C-209.01326294 52.98428955 -209.01326294 52.98428955 -208.0065918 52.96826172 C-193.84385393 52.77366109 -180.03049888 53.02409485 -166 55 C-164.99291992 55.13954102 -163.98583984 55.27908203 -162.94824219 55.42285156 C-138.10895109 58.91831201 -114.4505261 63.34299607 -92 75 C-92 75.66 -92 76.32 -92 77 C-91.42765625 77.11472656 -90.8553125 77.22945313 -90.265625 77.34765625 C-87.78528344 78.06182356 -85.93631303 79.07307872 -83.75 80.4375 C-82.69039062 81.08525391 -82.69039062 81.08525391 -81.609375 81.74609375 C-81.07828125 82.15988281 -80.5471875 82.57367188 -80 83 C-80 83.66 -80 84.32 -80 85 C-79.42765625 85.2475 -78.8553125 85.495 -78.265625 85.75 C-75.64989389 87.19316199 -73.85226544 88.88216222 -71.75 91 C-70.69039062 92.051875 -70.69039062 92.051875 -69.609375 93.125 C-68 95 -68 95 -68 97 C-67.01 97.33 -66.02 97.66 -65 98 C-63.39656106 100.28851782 -61.96122907 102.52869059 -60.5625 104.9375 C-59.959823 105.96846802 -59.959823 105.96846802 -59.3449707 107.02026367 C-46.11257641 130.03723191 -44.62640941 157.36536516 -51.35839844 182.78369141 C-53.08368633 188.74341877 -55.35911312 194.3857139 -58 200 C-58.3098584 200.65983887 -58.6197168 201.31967773 -58.93896484 201.99951172 C-67.06521664 219.09098495 -76.84817141 234.53761503 -88.64697266 249.29736328 C-89.91673163 250.89521588 -91.1680329 252.50768705 -92.41796875 254.12109375 C-93.12566406 255.02988281 -93.83335937 255.93867187 -94.5625 256.875 C-95.18253906 257.67679688 -95.80257813 258.47859375 -96.44140625 259.3046875 C-96.95574219 259.86414063 -97.47007812 260.42359375 -98 261 C-98.66 261 -99.32 261 -100 261 C-100.38285156 261.86963379 -100.38285156 261.86963379 -100.7734375 262.75683594 C-102.12584777 265.23015312 -103.63732524 266.89602109 -105.625 268.890625 C-106.33140625 269.59960938 -107.0378125 270.30859375 -107.765625 271.0390625 C-108.50296875 271.76867187 -109.2403125 272.49828125 -110 273.25 C-110.73734375 273.99507812 -111.4746875 274.74015625 -112.234375 275.5078125 C-112.94078125 276.21164062 -113.6471875 276.91546875 -114.375 277.640625 C-115.02210938 278.28547852 -115.66921875 278.93033203 -116.3359375 279.59472656 C-118 281 -118 281 -120 281 C-120.66 282.32 -121.32 283.64 -122 285 C-122.66 285 -123.32 285 -124 285 C-124 285.66 -124 286.32 -124 287 C-125.90289645 288.62759664 -127.80615143 290.13423375 -129.8125 291.625 C-130.70001953 292.29378174 -130.70001953 292.29378174 -131.60546875 292.97607422 C-132.82132811 293.88959945 -134.03960739 294.79991252 -135.26025391 295.70703125 C-136.79744877 296.84946515 -138.32705289 298.0020974 -139.85546875 299.15625 C-145.68988068 303.49974131 -151.7281266 307.39554444 -157.95703125 311.140625 C-160.02226589 312.40256555 -162.0574149 313.71483406 -164.0625 315.0703125 C-166.72207051 316.81742398 -169.32488529 318.24654742 -172.1875 319.625 C-176.01413484 321.49548195 -179.79713508 323.41300447 -183.546875 325.43359375 C-191.65136473 329.79673269 -199.57510525 333.87453731 -208.24609375 337 C-210.62498169 337.86382314 -212.89239593 338.8136802 -215.1875 339.875 C-236.03022126 349.3175588 -257.8178194 355.63134899 -280.35546875 359.38671875 C-282.38158105 359.72766155 -284.40580433 360.08476802 -286.41699219 360.50488281 C-325.69158058 368.03313095 -371.75155932 364.61876399 -408 347 C-408.62648438 346.70609375 -409.25296875 346.4121875 -409.8984375 346.109375 C-420.09040352 341.20059137 -430.41451389 335.40961277 -439 328 C-439.495 326.515 -439.495 326.515 -440 325 C-442.00016466 323.79117904 -442.00016466 323.79117904 -444 323 C-444 322.34 -444 321.68 -444 321 C-444.59296875 320.75507812 -445.1859375 320.51015625 -445.796875 320.2578125 C-455.44869337 314.74737719 -462.03256036 297.13138594 -464.92895508 286.77612305 C-465.68336796 283.86314044 -466.36585544 280.94142761 -467 278 C-467.28617188 276.85337891 -467.28617188 276.85337891 -467.578125 275.68359375 C-471.11574472 253.18040163 -466.02221992 228.98119055 -458 208 C-457.69578125 207.1234375 -457.3915625 206.246875 -457.078125 205.34375 C-452.77388843 193.48679643 -446.04822604 182.00108638 -439.4140625 171.30859375 C-437.76674986 168.61919659 -436.23617298 165.87230343 -434.6875 163.125 C-431.30630183 157.3223324 -427.43950716 152.0455277 -423.33007812 146.7421875 C-421.80338591 144.7424673 -420.31476447 142.71716347 -418.828125 140.6875 C-418.28696045 139.95241211 -417.7457959 139.21732422 -417.18823242 138.45996094 C-416.1163364 137.00286485 -415.04868315 135.54263672 -413.9855957 134.07910156 C-412.70491819 132.34958552 -411.35802982 130.66946568 -410 129 C-409.34 129 -408.68 129 -408 129 C-407.7421875 128.42507813 -407.484375 127.85015625 -407.21875 127.2578125 C-401.39299874 116.46523484 -389.58460624 107.48755249 -380.96362305 98.94775391 C-379.58725776 97.5825118 -378.24746052 96.17987355 -376.93676758 94.75146484 C-375 93 -375 93 -372 93 C-371.71769531 92.18595703 -371.71769531 92.18595703 -371.4296875 91.35546875 C-369.31479018 87.87108875 -366.32852723 85.77549701 -363.125 83.3125 C-362.49980469 82.81427734 -361.87460937 82.31605469 -361.23046875 81.80273438 C-356.48178262 78.10317658 -356.48178262 78.10317658 -353.85107422 77.53979492 C-353.24021973 77.3616626 -352.62936523 77.18353027 -352 77 C-351.67 76.01 -351.34 75.02 -351 74 C-349.00390625 72.39453125 -349.00390625 72.39453125 -346.5625 70.8125 C-345.75941406 70.28269531 -344.95632813 69.75289063 -344.12890625 69.20703125 C-342 68 -342 68 -340 68 C-340 67.34 -340 66.68 -340 66 C-337.8828125 64.4921875 -337.8828125 64.4921875 -335.125 62.875 C-334.22007812 62.33617187 -333.31515625 61.79734375 -332.3828125 61.2421875 C-330 60 -330 60 -328 60 C-328 59.34 -328 58.68 -328 58 C-325.9375 56.58984375 -325.9375 56.58984375 -323 54.9375 C-321.90042969 54.31488281 -320.80085937 53.69226563 -319.66796875 53.05078125 C-319.07161621 52.71771973 -318.47526367 52.3846582 -317.86083984 52.04150391 C-315.9809083 50.98931446 -314.10898769 49.92396234 -312.23828125 48.85546875 C-290.77500644 36.63126252 -268.83523961 24.34122414 -245.25732422 16.734375 C-242.6856783 15.89774176 -240.12620859 15.02843261 -237.56640625 14.15625 C-235.69031531 13.5202102 -233.81401564 12.88478571 -231.9375 12.25 C-231.06851074 11.95577148 -230.19952148 11.66154297 -229.30419922 11.35839844 C-224.92791328 9.8987908 -220.57074776 8.58652303 -216.08422852 7.51416016 C-213.69695204 6.92524083 -211.33500682 6.26600018 -208.96875 5.59765625 C-208.07414062 5.34693359 -207.17953125 5.09621094 -206.2578125 4.83789062 C-204.44924362 4.32939073 -202.64189703 3.81651887 -200.8359375 3.29882812 C-187.47188692 -0.4229267 -173.69936239 -2.48164581 -160 -4.5625 C-159.29066315 -4.67049927 -158.58132629 -4.77849854 -157.85049438 -4.88977051 C-144.93242532 -6.84033489 -132.04239687 -8.19135687 -119 -9 C-117.40234157 -9.11194804 -115.80468524 -9.22392608 -114.20703125 -9.3359375 C-78.44443931 -11.65808707 -33.81150902 -13.63662969 0 0 Z M-136 81 C-133.51406248 83.58951825 -130.90359691 85.97085529 -128.1875 88.3125 C-117.70760742 97.45577042 -109.04360186 107.37084285 -103 120 C-102.484375 121.06347656 -101.96875 122.12695312 -101.4375 123.22265625 C-87.80902309 153.98894288 -91.55519875 189.20444928 -103 220 C-103.26683594 220.72622559 -103.53367187 221.45245117 -103.80859375 222.20068359 C-107.36614635 231.72649879 -111.73872883 240.55379613 -116.88671875 249.31640625 C-119.11476507 253.12217817 -121.06143398 257.03972404 -123 261 C-119.23845262 259.74615087 -117.72808802 257.85799698 -115 255 C-113.824375 253.8553125 -113.824375 253.8553125 -112.625 252.6875 C-109.90795549 249.90576395 -107.36951085 247.01716363 -104.84375 244.0625 C-103.47019874 242.52598503 -102.02996326 241.04858796 -100.55859375 239.60546875 C-94.8563007 233.79870621 -83 221.61727654 -83 213 C-82.34 213 -81.68 213 -81 213 C-71.15066835 193.74125721 -63.1611974 176.05451706 -63.375 154.125 C-63.37764862 153.37675964 -63.38029724 152.62851929 -63.38302612 151.85760498 C-63.45824576 140.54075781 -64.32413497 131.01989331 -70 121 C-70.88171875 119.30423828 -70.88171875 119.30423828 -71.78125 117.57421875 C-74.62702127 112.36321215 -77.48159286 107.92387989 -82 104 C-82.763125 103.195625 -83.52625 102.39125 -84.3125 101.5625 C-93.05622936 93.22545573 -103.57099861 87.78712472 -115 84 C-115.76699219 83.7215625 -116.53398438 83.443125 -117.32421875 83.15625 C-123.65577265 81.00928667 -129.34385016 80.65833451 -136 81 Z M-256 98 C-256.98613281 98.32822754 -256.98613281 98.32822754 -257.9921875 98.66308594 C-264.58239834 100.9088165 -270.87509784 103.70287834 -277 107 C-277.92039062 107.47566406 -278.84078125 107.95132813 -279.7890625 108.44140625 C-280.76617187 108.95574219 -281.74328125 109.47007812 -282.75 110 C-283.65234375 110.474375 -284.5546875 110.94875 -285.484375 111.4375 C-288.07754587 113.04816514 -289.89153432 114.80668661 -292 117 C-293.42027149 118.12624117 -294.858385 119.23030785 -296.3125 120.3125 C-303.19012768 125.61165576 -309.35544071 131.5993286 -314 139 C-314 139.66 -314 140.32 -314 141 C-314.66 141 -315.32 141 -316 141 C-316.36351562 141.66644531 -316.72703125 142.33289063 -317.1015625 143.01953125 C-317.60429687 143.94121094 -318.10703125 144.86289062 -318.625 145.8125 C-319.44484375 147.32263672 -319.44484375 147.32263672 -320.28125 148.86328125 C-321.36921095 150.84880998 -322.47164489 152.82653455 -323.59375 154.79296875 C-327.1189175 161.02496129 -329.94402139 167.13541025 -332 174 C-332.37382812 175.2478125 -332.74765625 176.495625 -333.1328125 177.78125 C-339.68129389 201.81955167 -337.35739158 227.40874501 -325.3046875 249.26953125 C-319.8889327 258.41366063 -312.40852007 266.53819956 -304 273 C-302.88238281 273.87205078 -302.88238281 273.87205078 -301.7421875 274.76171875 C-295.27650805 279.55380593 -288.41580871 282.91712895 -281 286 C-280.24074219 286.3196875 -279.48148438 286.639375 -278.69921875 286.96875 C-255.57471188 295.67854543 -225.10509027 292.34221628 -202.75 283.06640625 C-200.76272939 282.13487315 -198.8951767 281.1084336 -197 280 C-195.88882813 279.35417969 -194.77765625 278.70835937 -193.6328125 278.04296875 C-192.4205647 277.32251267 -191.20963239 276.59983872 -190 275.875 C-189.4107373 275.52590576 -188.82147461 275.17681152 -188.21435547 274.81713867 C-186.77368822 273.93412846 -185.38151493 272.97295716 -184 272 C-184 271.34 -184 270.68 -184 270 C-182.68 269.67 -181.36 269.34 -180 269 C-180 268.34 -180 267.68 -180 267 C-179.41347656 266.73058594 -178.82695313 266.46117187 -178.22265625 266.18359375 C-168.9898617 261.26700896 -159.20453747 250.90866774 -154 242 C-153.34 241.67 -152.68 241.34 -152 241 C-149.80403656 237.61057817 -147.91635487 234.05324132 -146 230.5 C-144.56486995 227.8390297 -143.14446217 225.22367119 -141.50390625 222.68359375 C-139.50614582 219.11875891 -138.24899134 215.42318168 -136.9375 211.5625 C-136.68162109 210.82451172 -136.42574219 210.08652344 -136.16210938 209.32617188 C-135.66143546 207.87820748 -135.16570422 206.42852316 -134.67529297 204.97705078 C-134.10162334 203.29752198 -133.49385392 201.62970207 -132.87890625 199.96484375 C-130.70109868 192.61837287 -130.84530986 185.15822855 -130.875 177.5625 C-130.87113281 176.57701172 -130.86726562 175.59152344 -130.86328125 174.57617188 C-130.87512494 165.64010431 -131.19887366 158.18704135 -135 150 C-135.49489328 148.52602057 -135.97329613 147.04643042 -136.4375 145.5625 C-142.48979603 127.02734342 -157.09987013 112.17293184 -174 103 C-174.91523437 102.484375 -175.83046875 101.96875 -176.7734375 101.4375 C-190.00577738 94.34241159 -202.86225271 92.25799787 -217.625 92.4375 C-218.73202774 92.44289291 -218.73202774 92.44289291 -219.86141968 92.44839478 C-232.41793383 92.53562455 -244.04809207 93.94727749 -256 98 Z M-364.125 152.875 C-366.22054055 154.77762162 -366.22054055 154.77762162 -366 157 C-366.66 157 -367.32 157 -368 157 C-377.34547231 168.09214338 -377.34547231 168.09214338 -382 181 C-382.66 181 -383.32 181 -384 181 C-385.71828653 184.90204549 -387.42939343 188.80679516 -389.125 192.71875 C-390.19322383 195.17824922 -391.28817947 197.6076828 -392.4375 200.03125 C-401.16151106 219.00597405 -402.47435093 240.21256695 -396 260 C-394.64979955 263.29169558 -393.063318 266.10792546 -391 269 C-390.46246094 269.75539063 -389.92492187 270.51078125 -389.37109375 271.2890625 C-375.1282759 290.34321255 -355.95244006 300.09001026 -333 305 C-328.66725104 305.53224632 -324.3620615 305.85288157 -320 306 C-320.55429687 305.73316406 -321.10859375 305.46632813 -321.6796875 305.19140625 C-330.50003307 300.66244093 -337.87087022 294.83665266 -345 288 C-345.66128906 287.39027344 -346.32257813 286.78054688 -347.00390625 286.15234375 C-350.74354426 282.60655306 -353.45042604 279.01237365 -355.95703125 274.50390625 C-356.30121094 274.00761719 -356.64539063 273.51132812 -357 273 C-357.66 273 -358.32 273 -359 273 C-359.20625 272.236875 -359.4125 271.47375 -359.625 270.6875 C-360.82272011 267.47543243 -362.16749065 264.88683433 -363.875 261.9375 C-367.2569023 255.83197322 -369.28420157 249.74880717 -371 243 C-371.30035156 241.89011719 -371.60070312 240.78023437 -371.91015625 239.63671875 C-376.76001281 218.63571198 -376.40813768 193.07219251 -368 173 C-367.731875 171.824375 -367.46375 170.64875 -367.1875 169.4375 C-365.67065571 163.03984221 -362.93506812 156.87013623 -360 151 C-362.22237838 150.77945945 -362.22237838 150.77945945 -364.125 152.875 Z " fill="#000000" transform="translate(740,311)"/>
<path d="M0 0 C2.87521023 1.39875092 5.01615834 2.8924456 7.3125 5.125 C7.953125 7.26171875 7.953125 7.26171875 8.3125 9.125 C-2.96345148 19.87031847 -15.6395788 28.6683501 -28.6875 37.125 C-29.54214844 37.68445313 -30.39679688 38.24390625 -31.27734375 38.8203125 C-43.44640021 46.6890257 -55.89887245 53.89814996 -68.91796875 60.2578125 C-72.41648768 61.97198908 -75.83524829 63.8112628 -79.25 65.6875 C-90.70859982 71.91192459 -102.66378023 77.09928967 -114.6875 82.125 C-115.59371094 82.5065625 -116.49992188 82.888125 -117.43359375 83.28125 C-121.35201948 84.895079 -125.26360964 86.34783618 -129.328125 87.55078125 C-130.20049805 87.80899658 -131.07287109 88.06721191 -131.97167969 88.33325195 C-137.25131762 89.87243442 -142.54129189 91.37452444 -147.83203125 92.875 C-152.1963419 94.11640392 -156.54662919 95.38607117 -160.8828125 96.72265625 C-164.91329043 97.93433552 -168.9025278 98.88475172 -173.0625 99.5625 C-174.22523438 99.76746094 -175.38796875 99.97242188 -176.5859375 100.18359375 C-179.6875 100.125 -179.6875 100.125 -182.06640625 98.3828125 C-184.40221379 95.1295673 -184.32549788 93.02387594 -183.6875 89.125 C-180.48714251 86.13111719 -176.69511705 85.55925593 -172.484375 84.69921875 C-154.14191111 80.9333777 -136.02157285 75.24118606 -118.94921875 67.5390625 C-115.99975549 66.26037304 -113.02787494 65.15092724 -109.99707031 64.08251953 C-100.44843931 60.69964268 -91.72649498 56.1135541 -82.84082031 51.28076172 C-78.98769711 49.21265682 -75.06212011 47.29773723 -71.1328125 45.37890625 C-68.5758646 44.06775565 -66.14267918 42.61690314 -63.6875 41.125 C-62.25354589 40.32692859 -60.81609909 39.53509603 -59.375 38.75 C-55.80925541 36.77945694 -52.35356623 34.69144237 -48.91796875 32.50390625 C-46.21160531 30.8307954 -43.45064788 29.26495581 -40.6875 27.6875 C-36.3354948 25.16849573 -32.3086224 22.48131727 -28.34765625 19.390625 C-26.23417761 17.77940834 -23.96534075 16.49170445 -21.6875 15.125 C-19.59185912 13.55021744 -17.51813279 11.95174967 -15.45703125 10.33203125 C-13.6875 9.125 -13.6875 9.125 -11.6875 9.125 C-11.3575 8.135 -11.0275 7.145 -10.6875 6.125 C-7.58772763 3.0831673 -4.43525452 0.20629091 0 0 Z " fill="#000000" transform="translate(671.6875,645.875)"/>
<path d="M0 0 C1.74104353 1.74104353 1.21311272 4.07364021 1.25 6.4375 C1.28867187 7.92056641 1.28867187 7.92056641 1.328125 9.43359375 C1.16570312 10.70396484 1.16570312 10.70396484 1 12 C-2.49741801 14.331612 -5.16587517 14.44308642 -9.21875 14.67578125 C-10.71041481 14.77910935 -12.20203086 14.88314302 -13.69360352 14.98779297 C-14.47760529 15.04014099 -15.26160706 15.09248901 -16.06936646 15.14642334 C-38.43381203 16.67450742 -60.09914438 20.18498825 -81.68554688 26.34521484 C-84.10263322 27.02903611 -86.52672904 27.68207009 -88.953125 28.33203125 C-112.01870209 34.59789428 -134.92561225 42.78404997 -156.24609375 53.65234375 C-159.65354503 55.37581263 -162.92635701 56.80858262 -166.625 57.8125 C-167.88183594 58.16248047 -167.88183594 58.16248047 -169.1640625 58.51953125 C-169.76992188 58.67808594 -170.37578125 58.83664062 -171 59 C-175.77366255 54.82304527 -175.77366255 54.82304527 -176.6875 51.5 C-175.48646892 47.13261424 -171.97632545 45.17862493 -168.27734375 42.97265625 C-163.21505975 40.29641694 -157.85103571 38.36830047 -152.5 36.35546875 C-148.91670515 34.96774184 -145.39810988 33.47113446 -141.875 31.9375 C-135.98510719 29.38911371 -130.05268517 27.12594314 -124 25 C-122.89914062 24.59910156 -121.79828125 24.19820313 -120.6640625 23.78515625 C-110.97139033 20.26541106 -101.24570195 17.02442847 -91.22753906 14.56030273 C-88.78544866 13.94603295 -86.35600255 13.29245046 -83.92578125 12.6328125 C-65.58028652 7.67934886 -47.33844986 4.18246629 -28.5 1.75 C-27.82526642 1.66087341 -27.15053284 1.57174683 -26.45535278 1.47991943 C-17.66290431 0.33075321 -8.87581629 -0.58955096 0 0 Z " fill="#000000" transform="translate(623,268)"/>
</svg>
